<?xml version="1.0" encoding="UTF-8" standalone="no"?>
<!DOCTYPE svg PUBLIC "-//W3C//DTD SVG 1.1//EN"
 "http://www.w3.org/Graphics/SVG/1.1/DTD/svg11.dtd">
<!-- Generated by graphviz version 12.2.0 (20241103.1931)
 -->
<!-- Title: G Pages: 1 -->
<svg width="186pt" height="186pt"
 viewBox="0.00 0.00 185.76 185.76" xmlns="http://www.w3.org/2000/svg" xmlns:xlink="http://www.w3.org/1999/xlink">
<g id="graph0" class="graph" transform="scale(1 1) rotate(0) translate(36 149.76)">
<title>G</title>
<polygon fill="white" stroke="none" points="-36,36 -36,-149.76 149.76,-149.76 149.76,36 -36,36"/>
<!-- 0 -->
<g id="node1" class="node">
<title>0</title>
<polygon fill="none" stroke="none" points="57.24,-113.72 56.52,-113.72 56.52,-112.28 57.24,-112.28 57.24,-113.72"/>
<text text-anchor="middle" x="56.88" y="-108.8" font-family="Times,serif" font-size="14.00">0</text>
</g>
<!-- 2 -->
<g id="node3" class="node">
<title>2</title>
<ellipse fill="none" stroke="none" cx="56.88" cy="-76" rx="0.36" ry="0.72"/>
<text text-anchor="middle" x="56.88" y="-71.8" font-family="Times,serif" font-size="14.00">2</text>
</g>
<!-- 0&#45;&gt;2 -->
<g id="edge1" class="edge">
<title>0&#45;&gt;2</title>
<path fill="none" stroke="black" d="M56.88,-111.88C56.88,-108.22 56.88,-80.52 56.88,-77.07"/>
</g>
<!-- 1 -->
<g id="node2" class="node">
<title>1</title>
<polygon fill="none" stroke="none" points="57.24,-1.72 56.52,-1.72 56.52,-0.28 57.24,-0.28 57.24,-1.72"/>
<text text-anchor="middle" x="56.88" y="3.2" font-family="Times,serif" font-size="14.00">1</text>
</g>
<!-- 3 -->
<g id="node4" class="node">
<title>3</title>
<ellipse fill="none" stroke="none" cx="56.88" cy="-38" rx="0.36" ry="0.72"/>
<text text-anchor="middle" x="56.88" y="-33.8" font-family="Times,serif" font-size="14.00">3</text>
</g>
<!-- 2&#45;&gt;3 -->
<g id="edge2" class="edge">
<title>2&#45;&gt;3</title>
<path fill="none" stroke="black" d="M56.88,-74.87C56.88,-71.1 56.88,-42.63 56.88,-39.08"/>
</g>
<!-- 3&#45;&gt;1 -->
<g id="edge3" class="edge">
<title>3&#45;&gt;1</title>
<path fill="none" stroke="black" d="M56.88,-36.88C56.88,-33.22 56.88,-5.52 56.88,-2.07"/>
</g>
</g>
</svg>
