<?xml version="1.0" encoding="UTF-8" standalone="no"?>
<!DOCTYPE svg PUBLIC "-//W3C//DTD SVG 1.1//EN"
 "http://www.w3.org/Graphics/SVG/1.1/DTD/svg11.dtd">
<!-- Generated by graphviz version 12.2.0 (20241103.1931)
 -->
<!-- Title: G Pages: 1 -->
<svg width="186pt" height="186pt"
 viewBox="0.00 0.00 185.76 185.76" xmlns="http://www.w3.org/2000/svg" xmlns:xlink="http://www.w3.org/1999/xlink">
<g id="graph0" class="graph" transform="scale(1 1) rotate(0) translate(36 149.76)">
<title>G</title>
<polygon fill="white" stroke="none" points="-36,36 -36,-149.76 149.76,-149.76 149.76,36 -36,36"/>
<!-- 0 -->
<g id="node1" class="node">
<title>0</title>
<polygon fill="none" stroke="none" points="52.25,-113.72 51.53,-113.72 51.53,-112.28 52.25,-112.28 52.25,-113.72"/>
<text text-anchor="middle" x="51.89" y="-108.8" font-family="Times,serif" font-size="14.00">0</text>
</g>
<!-- 1 -->
<g id="node4" class="node">
<title>1</title>
<ellipse fill="none" stroke="none" cx="0.89" cy="-76" rx="0.36" ry="0.72"/>
<text text-anchor="middle" x="0.89" y="-71.8" font-family="Times,serif" font-size="14.00">1</text>
</g>
<!-- 0&#45;&gt;1 -->
<g id="edge1" class="edge">
<title>0&#45;&gt;1</title>
<path fill="none" stroke="black" d="M51.32,-111.88C45.89,-108.1 3.65,-78.65 1.02,-76.81"/>
</g>
<!-- 2 -->
<g id="node5" class="node">
<title>2</title>
<ellipse fill="none" stroke="none" cx="51.89" cy="-76" rx="0.36" ry="0.72"/>
<text text-anchor="middle" x="51.89" y="-71.8" font-family="Times,serif" font-size="14.00">2</text>
</g>
<!-- 0&#45;&gt;2 -->
<g id="edge4" class="edge">
<title>0&#45;&gt;2</title>
<path fill="none" stroke="black" d="M51.89,-111.88C51.89,-108.22 51.89,-80.52 51.89,-77.07"/>
</g>
<!-- 5 -->
<g id="node2" class="node">
<title>5</title>
<polygon fill="none" stroke="none" points="52.25,-1.72 51.53,-1.72 51.53,-0.28 52.25,-0.28 52.25,-1.72"/>
<text text-anchor="middle" x="51.89" y="3.2" font-family="Times,serif" font-size="14.00">5</text>
</g>
<!-- 4 -->
<g id="node3" class="node">
<title>4</title>
<ellipse fill="none" stroke="none" cx="51.89" cy="-38" rx="0.36" ry="0.72"/>
<text text-anchor="middle" x="51.89" y="-33.8" font-family="Times,serif" font-size="14.00">4</text>
</g>
<!-- 4&#45;&gt;5 -->
<g id="edge5" class="edge">
<title>4&#45;&gt;5</title>
<path fill="none" stroke="black" d="M51.89,-36.88C51.89,-33.22 51.89,-5.52 51.89,-2.07"/>
</g>
<!-- 3 -->
<g id="node6" class="node">
<title>3</title>
<ellipse fill="none" stroke="none" cx="112.89" cy="-1" rx="0.36" ry="0.72"/>
<text text-anchor="middle" x="112.89" y="3.2" font-family="Times,serif" font-size="14.00">3</text>
</g>
<!-- 4&#45;&gt;3 -->
<g id="edge7" class="edge">
<title>4&#45;&gt;3</title>
<path fill="none" stroke="black" d="M52.28,-37.05C57.31,-34.12 109.48,-3.71 112.73,-1.81"/>
</g>
<!-- 1&#45;&gt;4 -->
<g id="edge3" class="edge">
<title>1&#45;&gt;4</title>
<path fill="none" stroke="black" d="M1.04,-75.18C3.94,-73.1 48.94,-40.83 51.75,-38.82"/>
</g>
<!-- 2&#45;&gt;4 -->
<g id="edge2" class="edge">
<title>2&#45;&gt;4</title>
<path fill="none" stroke="black" d="M51.89,-74.87C51.89,-71.1 51.89,-42.63 51.89,-39.08"/>
</g>
<!-- 3&#45;&gt;0 -->
<g id="edge6" class="edge">
<title>3&#45;&gt;0</title>
<path fill="none" stroke="black" d="M112.73,-2.02C109.37,-8.11 55.53,-105.68 52.07,-111.96"/>
</g>
</g>
</svg>
