<?xml version="1.0" encoding="UTF-8" standalone="no"?>
<!DOCTYPE svg PUBLIC "-//W3C//DTD SVG 1.1//EN"
 "http://www.w3.org/Graphics/SVG/1.1/DTD/svg11.dtd">
<!-- Generated by graphviz version 12.2.0 (20241103.1931)
 -->
<!-- Title: G Pages: 1 -->
<svg width="308pt" height="298pt"
 viewBox="0.00 0.00 308.02 298.08" xmlns="http://www.w3.org/2000/svg" xmlns:xlink="http://www.w3.org/1999/xlink">
<g id="graph0" class="graph" transform="scale(1 1) rotate(0) translate(36 262.08)">
<title>G</title>
<polygon fill="white" stroke="none" points="-36,36 -36,-262.08 272.02,-262.08 272.02,36 -36,36"/>
<!-- 1 -->
<g id="node1" class="node">
<title>1</title>
<polygon fill="none" stroke="none" points="177.82,-225.72 177.1,-225.72 177.1,-224.28 177.82,-224.28 177.82,-225.72"/>
<text text-anchor="middle" x="177.46" y="-220.8" font-family="Times,serif" font-size="14.00">1</text>
</g>
<!-- 2 -->
<g id="node3" class="node">
<title>2</title>
<ellipse fill="none" stroke="none" cx="113.46" cy="-113" rx="0.36" ry="0.72"/>
<text text-anchor="middle" x="113.46" y="-108.8" font-family="Times,serif" font-size="14.00">2</text>
</g>
<!-- 1&#45;&gt;2 -->
<g id="edge8" class="edge">
<title>1&#45;&gt;2</title>
<path fill="none" stroke="black" d="M177.27,-223.96C173.64,-217.68 117.16,-120.11 113.63,-114.02"/>
</g>
<!-- 3 -->
<g id="node4" class="node">
<title>3</title>
<ellipse fill="none" stroke="none" cx="224.46" cy="-188" rx="0.36" ry="0.72"/>
<text text-anchor="middle" x="224.46" y="-183.8" font-family="Times,serif" font-size="14.00">3</text>
</g>
<!-- 1&#45;&gt;3 -->
<g id="edge3" class="edge">
<title>1&#45;&gt;3</title>
<path fill="none" stroke="black" d="M177.99,-223.88C182.99,-220.1 221.91,-190.65 224.34,-188.81"/>
</g>
<!-- 0 -->
<g id="node2" class="node">
<title>0</title>
<polygon fill="none" stroke="none" points="160.82,-1.72 160.1,-1.72 160.1,-0.28 160.82,-0.28 160.82,-1.72"/>
<text text-anchor="middle" x="160.46" y="3.2" font-family="Times,serif" font-size="14.00">0</text>
</g>
<!-- 5 -->
<g id="node6" class="node">
<title>5</title>
<ellipse fill="none" stroke="none" cx="113.46" cy="-76" rx="0.36" ry="0.72"/>
<text text-anchor="middle" x="113.46" y="-71.8" font-family="Times,serif" font-size="14.00">5</text>
</g>
<!-- 2&#45;&gt;5 -->
<g id="edge5" class="edge">
<title>2&#45;&gt;5</title>
<path fill="none" stroke="black" d="M113.46,-111.88C113.46,-108.22 113.46,-80.52 113.46,-77.07"/>
</g>
<!-- 4 -->
<g id="node5" class="node">
<title>4</title>
<ellipse fill="none" stroke="none" cx="224.46" cy="-150" rx="0.36" ry="0.72"/>
<text text-anchor="middle" x="224.46" y="-145.8" font-family="Times,serif" font-size="14.00">4</text>
</g>
<!-- 3&#45;&gt;4 -->
<g id="edge4" class="edge">
<title>3&#45;&gt;4</title>
<path fill="none" stroke="black" d="M224.46,-186.87C224.46,-183.1 224.46,-154.63 224.46,-151.08"/>
</g>
<!-- 3&#45;&gt;5 -->
<g id="edge6" class="edge">
<title>3&#45;&gt;5</title>
<path fill="none" stroke="black" d="M224.65,-187.02C226.55,-184.45 241.45,-163.45 233.46,-149.28 204.28,-97.54 121.71,-78.51 114.03,-76.84"/>
</g>
<!-- 4&#45;&gt;0 -->
<g id="edge1" class="edge">
<title>4&#45;&gt;0</title>
<path fill="none" stroke="black" d="M224.27,-148.86C220.64,-140.47 164.16,-10.25 160.63,-2.12"/>
</g>
<!-- 4&#45;&gt;2 -->
<g id="edge7" class="edge">
<title>4&#45;&gt;2</title>
<path fill="none" stroke="black" d="M224.14,-149.18C217.83,-147.16 119.87,-115.78 113.76,-113.82"/>
</g>
<!-- 6 -->
<g id="node7" class="node">
<title>6</title>
<ellipse fill="none" stroke="none" cx="113.46" cy="-38" rx="0.36" ry="0.72"/>
<text text-anchor="middle" x="113.46" y="-33.8" font-family="Times,serif" font-size="14.00">6</text>
</g>
<!-- 5&#45;&gt;6 -->
<g id="edge12" class="edge">
<title>5&#45;&gt;6</title>
<path fill="none" stroke="black" d="M113.46,-74.87C113.46,-71.1 113.46,-42.63 113.46,-39.08"/>
</g>
<!-- 6&#45;&gt;0 -->
<g id="edge2" class="edge">
<title>6&#45;&gt;0</title>
<path fill="none" stroke="black" d="M113.59,-37.18C116.18,-35.22 155.11,-5.77 159.96,-2.1"/>
</g>
<!-- 7 -->
<g id="node8" class="node">
<title>7</title>
<ellipse fill="none" stroke="none" cx="1.46" cy="-188" rx="0.36" ry="0.72"/>
<text text-anchor="middle" x="1.46" y="-183.8" font-family="Times,serif" font-size="14.00">7</text>
</g>
<!-- 7&#45;&gt;2 -->
<g id="edge10" class="edge">
<title>7&#45;&gt;2</title>
<path fill="none" stroke="black" d="M1.78,-187.07C8.14,-182.89 106.98,-117.97 113.16,-113.92"/>
</g>
<!-- 7&#45;&gt;4 -->
<g id="edge11" class="edge">
<title>7&#45;&gt;4</title>
<path fill="none" stroke="black" d="M1.62,-187.25C8.16,-186.18 211.16,-152.9 223.84,-150.82"/>
</g>
<!-- 7&#45;&gt;6 -->
<g id="edge9" class="edge">
<title>7&#45;&gt;6</title>
<path fill="none" stroke="black" d="M1.54,-187.17C4.82,-182.81 106.78,-47.58 113.15,-39.13"/>
</g>
</g>
</svg>
