<?xml version="1.0" encoding="UTF-8" standalone="no"?>
<!DOCTYPE svg PUBLIC "-//W3C//DTD SVG 1.1//EN"
 "http://www.w3.org/Graphics/SVG/1.1/DTD/svg11.dtd">
<!-- Generated by graphviz version 12.2.0 (20241103.1931)
 -->
<!-- Title: G Pages: 1 -->
<svg width="261pt" height="261pt"
 viewBox="0.00 0.00 260.64 260.64" xmlns="http://www.w3.org/2000/svg" xmlns:xlink="http://www.w3.org/1999/xlink">
<g id="graph0" class="graph" transform="scale(1 1) rotate(0) translate(36 224.64)">
<title>G</title>
<polygon fill="white" stroke="none" points="-36,36 -36,-224.64 224.64,-224.64 224.64,36 -36,36"/>
<!-- start -->
<g id="node1" class="node">
<title>start</title>
<polygon fill="none" stroke="none" points="48.64,-188.72 47.92,-188.72 47.92,-187.28 48.64,-187.28 48.64,-188.72"/>
<text text-anchor="middle" x="48.28" y="-183.8" font-family="Times,serif" font-size="14.00">start</text>
</g>
<!-- 0 -->
<g id="node3" class="node">
<title>0</title>
<ellipse fill="none" stroke="none" cx="48.28" cy="-150" rx="0.36" ry="0.72"/>
<text text-anchor="middle" x="48.28" y="-145.8" font-family="Times,serif" font-size="14.00">0</text>
</g>
<!-- start&#45;&gt;0 -->
<g id="edge12" class="edge">
<title>start&#45;&gt;0</title>
<path fill="none" stroke="black" d="M48.28,-186.87C48.28,-183.1 48.28,-154.63 48.28,-151.08"/>
</g>
<!-- t -->
<g id="node7" class="node">
<title>t</title>
<ellipse fill="none" stroke="none" cx="1.28" cy="-150" rx="0.36" ry="0.72"/>
<text text-anchor="middle" x="1.28" y="-145.8" font-family="Times,serif" font-size="14.00">t</text>
</g>
<!-- start&#45;&gt;t -->
<g id="edge1" class="edge">
<title>start&#45;&gt;t</title>
<path fill="none" stroke="black" d="M47.76,-186.87C42.75,-182.98 3.83,-152.7 1.4,-150.81"/>
</g>
<!-- h -->
<g id="node11" class="node">
<title>h</title>
<ellipse fill="none" stroke="none" cx="118.28" cy="-150" rx="0.36" ry="0.72"/>
<text text-anchor="middle" x="118.28" y="-145.8" font-family="Times,serif" font-size="14.00">h</text>
</g>
<!-- start&#45;&gt;h -->
<g id="edge8" class="edge">
<title>start&#45;&gt;h</title>
<path fill="none" stroke="black" d="M49.07,-186.87C56.4,-183.04 112.63,-153.67 117.89,-150.93"/>
</g>
<!-- end -->
<g id="node2" class="node">
<title>end</title>
<polygon fill="none" stroke="none" points="100.64,-1.72 99.92,-1.72 99.92,-0.28 100.64,-0.28 100.64,-1.72"/>
<text text-anchor="middle" x="100.28" y="3.2" font-family="Times,serif" font-size="14.00">end</text>
</g>
<!-- o -->
<g id="node4" class="node">
<title>o</title>
<ellipse fill="none" stroke="none" cx="48.28" cy="-113" rx="0.36" ry="0.72"/>
<text text-anchor="middle" x="48.28" y="-108.8" font-family="Times,serif" font-size="14.00">o</text>
</g>
<!-- 0&#45;&gt;o -->
<g id="edge5" class="edge">
<title>0&#45;&gt;o</title>
<path fill="none" stroke="black" d="M48.28,-148.88C48.28,-145.22 48.28,-117.52 48.28,-114.07"/>
</g>
<!-- n -->
<g id="node5" class="node">
<title>n</title>
<ellipse fill="none" stroke="none" cx="83.28" cy="-76" rx="0.36" ry="0.72"/>
<text text-anchor="middle" x="83.28" y="-71.8" font-family="Times,serif" font-size="14.00">n</text>
</g>
<!-- o&#45;&gt;n -->
<g id="edge9" class="edge">
<title>o&#45;&gt;n</title>
<path fill="none" stroke="black" d="M48.38,-112.18C50.31,-110.22 79.3,-80.77 82.91,-77.1"/>
</g>
<!-- e -->
<g id="node6" class="node">
<title>e</title>
<ellipse fill="none" stroke="none" cx="100.28" cy="-38" rx="0.36" ry="0.72"/>
<text text-anchor="middle" x="100.28" y="-33.8" font-family="Times,serif" font-size="14.00">e</text>
</g>
<!-- n&#45;&gt;e -->
<g id="edge2" class="edge">
<title>n&#45;&gt;e</title>
<path fill="none" stroke="black" d="M83.47,-74.87C85.23,-71.1 98.47,-42.63 100.12,-39.08"/>
</g>
<!-- m -->
<g id="node10" class="node">
<title>m</title>
<ellipse fill="none" stroke="none" cx="53.28" cy="-38" rx="0.36" ry="0.72"/>
<text text-anchor="middle" x="53.28" y="-33.8" font-family="Times,serif" font-size="14.00">m</text>
</g>
<!-- n&#45;&gt;m -->
<g id="edge16" class="edge">
<title>n&#45;&gt;m</title>
<path fill="none" stroke="black" d="M83.2,-75.18C81.55,-73.16 56.7,-42.88 53.6,-39.11"/>
</g>
<!-- e&#45;&gt;end -->
<g id="edge14" class="edge">
<title>e&#45;&gt;end</title>
<path fill="none" stroke="black" d="M100.28,-36.88C100.28,-33.22 100.28,-5.52 100.28,-2.07"/>
</g>
<!-- E -->
<g id="node8" class="node">
<title>E</title>
<ellipse fill="none" stroke="none" cx="1.28" cy="-113" rx="0.36" ry="0.72"/>
<text text-anchor="middle" x="1.28" y="-108.8" font-family="Times,serif" font-size="14.00">E</text>
</g>
<!-- t&#45;&gt;E -->
<g id="edge11" class="edge">
<title>t&#45;&gt;E</title>
<path fill="none" stroke="black" d="M1.28,-148.88C1.28,-145.22 1.28,-117.52 1.28,-114.07"/>
</g>
<!-- a -->
<g id="node9" class="node">
<title>a</title>
<ellipse fill="none" stroke="none" cx="18.28" cy="-76" rx="0.36" ry="0.72"/>
<text text-anchor="middle" x="18.28" y="-71.8" font-family="Times,serif" font-size="14.00">a</text>
</g>
<!-- E&#45;&gt;a -->
<g id="edge6" class="edge">
<title>E&#45;&gt;a</title>
<path fill="none" stroke="black" d="M1.47,-111.88C3.23,-108.22 16.47,-80.52 18.12,-77.07"/>
</g>
<!-- a&#45;&gt;m -->
<g id="edge3" class="edge">
<title>a&#45;&gt;m</title>
<path fill="none" stroke="black" d="M18.38,-75.18C20.37,-73.1 51.26,-40.83 53.19,-38.82"/>
</g>
<!-- m&#45;&gt;end -->
<g id="edge10" class="edge">
<title>m&#45;&gt;end</title>
<path fill="none" stroke="black" d="M53.42,-37.18C56,-35.22 94.93,-5.77 99.79,-2.1"/>
</g>
<!-- h&#45;&gt;n -->
<g id="edge17" class="edge">
<title>h&#45;&gt;n</title>
<path fill="none" stroke="black" d="M118.18,-149.07C116.23,-145.02 86.3,-82.96 83.49,-77.16"/>
</g>
<!-- A -->
<g id="node12" class="node">
<title>A</title>
<ellipse fill="none" stroke="none" cx="187.28" cy="-113" rx="0.36" ry="0.72"/>
<text text-anchor="middle" x="187.28" y="-108.8" font-family="Times,serif" font-size="14.00">A</text>
</g>
<!-- h&#45;&gt;A -->
<g id="edge13" class="edge">
<title>h&#45;&gt;A</title>
<path fill="none" stroke="black" d="M118.72,-149.05C124.33,-146.17 181.53,-116.68 186.88,-113.93"/>
</g>
<!-- c -->
<g id="node13" class="node">
<title>c</title>
<ellipse fill="none" stroke="none" cx="177.28" cy="-76" rx="0.36" ry="0.72"/>
<text text-anchor="middle" x="177.28" y="-71.8" font-family="Times,serif" font-size="14.00">c</text>
</g>
<!-- A&#45;&gt;c -->
<g id="edge4" class="edge">
<title>A&#45;&gt;c</title>
<path fill="none" stroke="black" d="M187.17,-111.88C186.14,-108.22 178.35,-80.52 177.38,-77.07"/>
</g>
<!-- k -->
<g id="node14" class="node">
<title>k</title>
<ellipse fill="none" stroke="none" cx="168.28" cy="-38" rx="0.36" ry="0.72"/>
<text text-anchor="middle" x="168.28" y="-33.8" font-family="Times,serif" font-size="14.00">k</text>
</g>
<!-- c&#45;&gt;k -->
<g id="edge15" class="edge">
<title>c&#45;&gt;k</title>
<path fill="none" stroke="black" d="M177.18,-74.87C176.26,-71.1 169.25,-42.63 168.37,-39.08"/>
</g>
<!-- k&#45;&gt;end -->
<g id="edge7" class="edge">
<title>k&#45;&gt;end</title>
<path fill="none" stroke="black" d="M167.85,-37.05C162.42,-34.21 107.79,-5.64 100.98,-2.08"/>
</g>
</g>
</svg>
