<?xml version="1.0" encoding="UTF-8" standalone="no"?>
<!-- Created with Inkscape (http://www.inkscape.org/) -->

<svg
   width="210mm"
   height="297mm"
   viewBox="0 0 210 297"
   version="1.1"
   id="svg1"
   xmlns="http://www.w3.org/2000/svg"
   xmlns:svg="http://www.w3.org/2000/svg">
  <defs
     id="defs1" />
  <g
     id="layer1"
     style="fill:#c90081;fill-opacity:1">
    <path
       id="path1"
       style="fill:#c90081;stroke:none;stroke-width:7.77158;fill-opacity:1"
       d="M 134.90029 73.402238 L 125.61145 74.214591 L 125.15618 75.508053 C 125.15618 75.508053 124.09212 78.529655 122.91601 81.761934 C 122.48402 82.949169 122.04927 84.124168 121.63599 85.224772 A 12.798394 13.719821 0 0 0 119.32088 84.995329 A 12.798394 13.719821 0 0 0 106.5227 98.714905 A 12.798394 13.719821 0 0 0 106.56507 99.354142 A 13.407842 12.461472 0 0 0 98.214677 96.638029 A 13.407842 12.461472 0 0 0 92.664628 97.75734 A 18.740505 18.519135 0 0 0 73.989282 80.71497 A 18.740505 18.519135 0 0 0 55.248824 99.234253 A 18.740505 18.519135 0 0 0 73.989282 117.75354 A 18.740505 18.519135 0 0 0 85.750321 113.60805 A 13.407842 12.461472 0 0 0 87.117163 116.06268 L 79.767741 120.07639 L 71.277303 130.43545 L 74.568575 133.13296 L 82.532947 123.41624 L 90.344356 119.15035 A 13.407842 12.461472 0 0 0 97.857593 121.53728 C 98.387605 122.88235 98.7252 123.89905 98.804822 124.13661 L 98.224495 133.0234 L 102.47075 133.30091 L 103.1074 123.54285 L 102.97873 123.15062 C 102.97873 123.15062 102.66658 122.22132 102.20255 120.98331 A 13.407842 12.461472 0 0 0 103.24383 120.62261 L 111.43144 123.41211 L 117.42952 133.14639 L 121.05256 130.91397 L 114.25194 119.87692 L 107.87145 117.70238 A 13.407842 12.461472 0 0 0 111.58389 109.60055 A 12.798394 13.719821 0 0 0 119.32088 112.435 A 12.798394 13.719821 0 0 0 132.11958 98.714905 A 12.798394 13.719821 0 0 0 125.60319 86.766797 C 126.02886 85.633827 126.47481 84.428491 126.91577 83.216626 C 127.85744 80.628644 128.38951 79.114568 128.70687 78.216931 L 135.27133 77.642806 L 134.90029 73.402238 z " />
  </g>
</svg>
