<?xml version="1.0" encoding="UTF-8" standalone="no"?>
<!DOCTYPE svg PUBLIC "-//W3C//DTD SVG 1.1//EN"
 "http://www.w3.org/Graphics/SVG/1.1/DTD/svg11.dtd">
<!-- Generated by graphviz version 12.2.0 (20241103.1931)
 -->
<!-- Title: G Pages: 1 -->
<svg width="223pt" height="223pt"
 viewBox="0.00 0.00 223.20 223.20" xmlns="http://www.w3.org/2000/svg" xmlns:xlink="http://www.w3.org/1999/xlink">
<g id="graph0" class="graph" transform="scale(1 1) rotate(0) translate(36 187.2)">
<title>G</title>
<polygon fill="white" stroke="none" points="-36,36 -36,-187.2 187.2,-187.2 187.2,36 -36,36"/>
<!-- richard -->
<g id="node1" class="node">
<title>richard</title>
<polygon fill="none" stroke="none" points="75.65,-150.72 74.93,-150.72 74.93,-149.28 75.65,-149.28 75.65,-150.72"/>
<text text-anchor="middle" x="75.29" y="-145.8" font-family="Times,serif" font-size="14.00">richard</text>
</g>
<!-- gilfoyle -->
<g id="node3" class="node">
<title>gilfoyle</title>
<ellipse fill="none" stroke="none" cx="1.29" cy="-113" rx="0.36" ry="0.72"/>
<text text-anchor="middle" x="1.29" y="-108.8" font-family="Times,serif" font-size="14.00">gilfoyle</text>
</g>
<!-- richard&#45;&gt;gilfoyle -->
<g id="edge3" class="edge">
<title>richard&#45;&gt;gilfoyle</title>
<path fill="none" stroke="black" d="M74.45,-148.88C66.71,-145.16 7.26,-116.59 1.7,-113.92"/>
</g>
<!-- erlich -->
<g id="node4" class="node">
<title>erlich</title>
<ellipse fill="none" stroke="none" cx="75.29" cy="-76" rx="0.36" ry="0.72"/>
<text text-anchor="middle" x="75.29" y="-71.8" font-family="Times,serif" font-size="14.00">erlich</text>
</g>
<!-- richard&#45;&gt;erlich -->
<g id="edge6" class="edge">
<title>richard&#45;&gt;erlich</title>
<path fill="none" stroke="black" d="M75.29,-148.82C75.29,-142.93 75.29,-82.77 75.29,-77.14"/>
</g>
<!-- dinish -->
<g id="node5" class="node">
<title>dinish</title>
<ellipse fill="none" stroke="none" cx="150.29" cy="-76" rx="0.36" ry="0.72"/>
<text text-anchor="middle" x="150.29" y="-71.8" font-family="Times,serif" font-size="14.00">dinish</text>
</g>
<!-- richard&#45;&gt;dinish -->
<g id="edge1" class="edge">
<title>richard&#45;&gt;dinish</title>
<path fill="none" stroke="black" d="M75.76,-148.82C81.95,-142.83 146.09,-80.78 150.09,-76.91"/>
</g>
<!-- peter -->
<g id="node2" class="node">
<title>peter</title>
<polygon fill="none" stroke="none" points="38.65,-1.72 37.93,-1.72 37.93,-0.28 38.65,-0.28 38.65,-1.72"/>
<text text-anchor="middle" x="38.29" y="3.2" font-family="Times,serif" font-size="14.00">peter</text>
</g>
<!-- gilfoyle&#45;&gt;peter -->
<g id="edge4" class="edge">
<title>gilfoyle&#45;&gt;peter</title>
<path fill="none" stroke="black" d="M1.39,-111.96C3.49,-105.68 36.15,-8.11 38.19,-2.02"/>
</g>
<!-- gilfoyle&#45;&gt;erlich -->
<g id="edge5" class="edge">
<title>gilfoyle&#45;&gt;erlich</title>
<path fill="none" stroke="black" d="M1.76,-112.05C7.76,-109.17 69.12,-79.68 74.86,-76.93"/>
</g>
<!-- jimYoung -->
<g id="node6" class="node">
<title>jimYoung</title>
<ellipse fill="none" stroke="none" cx="75.29" cy="-38" rx="0.36" ry="0.72"/>
<text text-anchor="middle" x="75.29" y="-33.8" font-family="Times,serif" font-size="14.00">jimYoung</text>
</g>
<!-- erlich&#45;&gt;jimYoung -->
<g id="edge7" class="edge">
<title>erlich&#45;&gt;jimYoung</title>
<path fill="none" stroke="black" d="M75.29,-74.87C75.29,-71.1 75.29,-42.63 75.29,-39.08"/>
</g>
<!-- dinish&#45;&gt;jimYoung -->
<g id="edge2" class="edge">
<title>dinish&#45;&gt;jimYoung</title>
<path fill="none" stroke="black" d="M149.81,-75.05C143.72,-72.08 81.54,-41.77 75.72,-38.93"/>
</g>
<!-- jimYoung&#45;&gt;peter -->
<g id="edge8" class="edge">
<title>jimYoung&#45;&gt;peter</title>
<path fill="none" stroke="black" d="M75.18,-37.18C73.14,-35.22 42.5,-5.77 38.68,-2.1"/>
</g>
</g>
</svg>
