<?xml version="1.0" encoding="UTF-8" standalone="no"?>
<!DOCTYPE svg PUBLIC "-//W3C//DTD SVG 1.1//EN"
 "http://www.w3.org/Graphics/SVG/1.1/DTD/svg11.dtd">
<!-- Generated by graphviz version 12.2.0 (20241103.1931)
 -->
<!-- Title: G Pages: 1 -->
<svg width="410pt" height="410pt"
 viewBox="0.00 0.00 410.40 410.40" xmlns="http://www.w3.org/2000/svg" xmlns:xlink="http://www.w3.org/1999/xlink">
<g id="graph0" class="graph" transform="scale(1 1) rotate(0) translate(36 374.4)">
<title>G</title>
<polygon fill="white" stroke="none" points="-36,36 -36,-374.4 374.4,-374.4 374.4,36 -36,36"/>
<!-- start -->
<g id="node1" class="node">
<title>start</title>
<polygon fill="none" stroke="none" points="113.75,-338.72 113.03,-338.72 113.03,-337.28 113.75,-337.28 113.75,-338.72"/>
<text text-anchor="middle" x="113.39" y="-332.95" font-family="Times New Roman,serif" font-size="14.00">start</text>
</g>
<!-- a2 -->
<g id="node5" class="node">
<title>a2</title>
<ellipse fill="none" stroke="none" cx="37.39" cy="-300" rx="0.36" ry="0.72"/>
<text text-anchor="middle" x="37.39" y="-294.95" font-family="Times New Roman,serif" font-size="14.00">a2</text>
</g>
<!-- start&#45;&gt;a2 -->
<g id="edge1" class="edge">
<title>start&#45;&gt;a2</title>
<path fill="none" stroke="black" d="M112.54,-336.87C104.58,-333.04 43.53,-303.67 37.82,-300.93"/>
</g>
<!-- b2 -->
<g id="node6" class="node">
<title>b2</title>
<ellipse fill="none" stroke="none" cx="113.39" cy="-300" rx="0.36" ry="0.72"/>
<text text-anchor="middle" x="113.39" y="-294.95" font-family="Times New Roman,serif" font-size="14.00">b2</text>
</g>
<!-- start&#45;&gt;b2 -->
<g id="edge2" class="edge">
<title>start&#45;&gt;b2</title>
<path fill="none" stroke="black" d="M113.39,-336.87C113.39,-333.1 113.39,-304.63 113.39,-301.08"/>
</g>
<!-- c2 -->
<g id="node7" class="node">
<title>c2</title>
<ellipse fill="none" stroke="none" cx="225.39" cy="-300" rx="0.36" ry="0.72"/>
<text text-anchor="middle" x="225.39" y="-294.95" font-family="Times New Roman,serif" font-size="14.00">c2</text>
</g>
<!-- start&#45;&gt;c2 -->
<g id="edge3" class="edge">
<title>start&#45;&gt;c2</title>
<path fill="none" stroke="black" d="M114.11,-337.05C123.35,-334.03 219.12,-302.77 225.1,-300.82"/>
</g>
<!-- end -->
<g id="node2" class="node">
<title>end</title>
<polygon fill="none" stroke="none" points="225.75,-1.72 225.03,-1.72 225.03,-0.28 225.75,-0.28 225.75,-1.72"/>
<text text-anchor="middle" x="225.39" y="4.05" font-family="Times New Roman,serif" font-size="14.00">end</text>
</g>
<!-- d0 -->
<g id="node3" class="node">
<title>d0</title>
<ellipse fill="none" stroke="none" cx="337.39" cy="-263" rx="0.36" ry="0.72"/>
<text text-anchor="middle" x="337.39" y="-257.95" font-family="Times New Roman,serif" font-size="14.00">d0</text>
</g>
<!-- d1 -->
<g id="node4" class="node">
<title>d1</title>
<ellipse fill="none" stroke="none" cx="337.39" cy="-225" rx="0.36" ry="0.72"/>
<text text-anchor="middle" x="337.39" y="-219.95" font-family="Times New Roman,serif" font-size="14.00">d1</text>
</g>
<!-- d0&#45;&gt;d1 -->
<g id="edge21" class="edge">
<title>d0&#45;&gt;d1</title>
<path fill="none" stroke="black" d="M337.39,-261.87C337.39,-258.1 337.39,-229.63 337.39,-226.08"/>
</g>
<!-- d2 -->
<g id="node8" class="node">
<title>d2</title>
<ellipse fill="none" stroke="none" cx="337.39" cy="-188" rx="0.36" ry="0.72"/>
<text text-anchor="middle" x="337.39" y="-182.95" font-family="Times New Roman,serif" font-size="14.00">d2</text>
</g>
<!-- d1&#45;&gt;d2 -->
<g id="edge22" class="edge">
<title>d1&#45;&gt;d2</title>
<path fill="none" stroke="black" d="M337.39,-223.88C337.39,-220.22 337.39,-192.52 337.39,-189.07"/>
</g>
<!-- a3 -->
<g id="node9" class="node">
<title>a3</title>
<ellipse fill="none" stroke="none" cx="37.39" cy="-263" rx="0.36" ry="0.72"/>
<text text-anchor="middle" x="37.39" y="-257.95" font-family="Times New Roman,serif" font-size="14.00">a3</text>
</g>
<!-- a2&#45;&gt;a3 -->
<g id="edge7" class="edge">
<title>a2&#45;&gt;a3</title>
<path fill="none" stroke="black" d="M37.39,-298.88C37.39,-295.22 37.39,-267.52 37.39,-264.07"/>
</g>
<!-- b3 -->
<g id="node10" class="node">
<title>b3</title>
<ellipse fill="none" stroke="none" cx="113.39" cy="-263" rx="0.36" ry="0.72"/>
<text text-anchor="middle" x="113.39" y="-257.95" font-family="Times New Roman,serif" font-size="14.00">b3</text>
</g>
<!-- b2&#45;&gt;b3 -->
<g id="edge13" class="edge">
<title>b2&#45;&gt;b3</title>
<path fill="none" stroke="black" d="M113.39,-298.88C113.39,-295.22 113.39,-267.52 113.39,-264.07"/>
</g>
<!-- c2&#45;&gt;d0 -->
<g id="edge27" class="edge">
<title>c2&#45;&gt;d0</title>
<path fill="none" stroke="black" d="M225.71,-299.18C232.08,-297.16 330.92,-265.78 337.09,-263.82"/>
</g>
<!-- c3 -->
<g id="node11" class="node">
<title>c3</title>
<ellipse fill="none" stroke="none" cx="225.39" cy="-150" rx="0.36" ry="0.72"/>
<text text-anchor="middle" x="225.39" y="-144.95" font-family="Times New Roman,serif" font-size="14.00">c3</text>
</g>
<!-- c2&#45;&gt;c3 -->
<g id="edge17" class="edge">
<title>c2&#45;&gt;c3</title>
<path fill="none" stroke="black" d="M225.39,-298.85C225.39,-290.41 225.39,-159.31 225.39,-151.12"/>
</g>
<!-- d3 -->
<g id="node12" class="node">
<title>d3</title>
<ellipse fill="none" stroke="none" cx="329.39" cy="-150" rx="0.36" ry="0.72"/>
<text text-anchor="middle" x="329.39" y="-144.95" font-family="Times New Roman,serif" font-size="14.00">d3</text>
</g>
<!-- d2&#45;&gt;d3 -->
<g id="edge23" class="edge">
<title>d2&#45;&gt;d3</title>
<path fill="none" stroke="black" d="M337.3,-186.87C336.48,-183.1 330.25,-154.63 329.47,-151.08"/>
</g>
<!-- a4 -->
<g id="node13" class="node">
<title>a4</title>
<ellipse fill="none" stroke="none" cx="37.39" cy="-225" rx="0.36" ry="0.72"/>
<text text-anchor="middle" x="37.39" y="-219.95" font-family="Times New Roman,serif" font-size="14.00">a4</text>
</g>
<!-- a3&#45;&gt;a4 -->
<g id="edge8" class="edge">
<title>a3&#45;&gt;a4</title>
<path fill="none" stroke="black" d="M37.39,-261.87C37.39,-258.1 37.39,-229.63 37.39,-226.08"/>
</g>
<!-- b4 -->
<g id="node14" class="node">
<title>b4</title>
<ellipse fill="none" stroke="none" cx="113.39" cy="-225" rx="0.36" ry="0.72"/>
<text text-anchor="middle" x="113.39" y="-219.95" font-family="Times New Roman,serif" font-size="14.00">b4</text>
</g>
<!-- b3&#45;&gt;b4 -->
<g id="edge14" class="edge">
<title>b3&#45;&gt;b4</title>
<path fill="none" stroke="black" d="M113.39,-261.87C113.39,-258.1 113.39,-229.63 113.39,-226.08"/>
</g>
<!-- c4 -->
<g id="node15" class="node">
<title>c4</title>
<ellipse fill="none" stroke="none" cx="225.39" cy="-113" rx="0.36" ry="0.72"/>
<text text-anchor="middle" x="225.39" y="-107.95" font-family="Times New Roman,serif" font-size="14.00">c4</text>
</g>
<!-- c3&#45;&gt;c4 -->
<g id="edge18" class="edge">
<title>c3&#45;&gt;c4</title>
<path fill="none" stroke="black" d="M225.39,-148.88C225.39,-145.22 225.39,-117.52 225.39,-114.07"/>
</g>
<!-- d4 -->
<g id="node16" class="node">
<title>d4</title>
<ellipse fill="none" stroke="none" cx="325.39" cy="-113" rx="0.36" ry="0.72"/>
<text text-anchor="middle" x="325.39" y="-107.95" font-family="Times New Roman,serif" font-size="14.00">d4</text>
</g>
<!-- d3&#45;&gt;d4 -->
<g id="edge24" class="edge">
<title>d3&#45;&gt;d4</title>
<path fill="none" stroke="black" d="M329.35,-148.88C328.94,-145.22 325.82,-117.52 325.43,-114.07"/>
</g>
<!-- a5 -->
<g id="node17" class="node">
<title>a5</title>
<ellipse fill="none" stroke="none" cx="21.39" cy="-188" rx="0.36" ry="0.72"/>
<text text-anchor="middle" x="21.39" y="-182.95" font-family="Times New Roman,serif" font-size="14.00">a5</text>
</g>
<!-- a4&#45;&gt;a5 -->
<g id="edge9" class="edge">
<title>a4&#45;&gt;a5</title>
<path fill="none" stroke="black" d="M37.21,-223.88C35.56,-220.22 23.1,-192.52 21.55,-189.07"/>
</g>
<!-- b5 -->
<g id="node18" class="node">
<title>b5</title>
<ellipse fill="none" stroke="none" cx="113.39" cy="-188" rx="0.36" ry="0.72"/>
<text text-anchor="middle" x="113.39" y="-182.95" font-family="Times New Roman,serif" font-size="14.00">b5</text>
</g>
<!-- b4&#45;&gt;b5 -->
<g id="edge15" class="edge">
<title>b4&#45;&gt;b5</title>
<path fill="none" stroke="black" d="M113.39,-223.88C113.39,-220.22 113.39,-192.52 113.39,-189.07"/>
</g>
<!-- c5 -->
<g id="node19" class="node">
<title>c5</title>
<ellipse fill="none" stroke="none" cx="225.39" cy="-76" rx="0.36" ry="0.72"/>
<text text-anchor="middle" x="225.39" y="-70.95" font-family="Times New Roman,serif" font-size="14.00">c5</text>
</g>
<!-- c4&#45;&gt;c5 -->
<g id="edge19" class="edge">
<title>c4&#45;&gt;c5</title>
<path fill="none" stroke="black" d="M225.39,-111.88C225.39,-108.22 225.39,-80.52 225.39,-77.07"/>
</g>
<!-- d5 -->
<g id="node20" class="node">
<title>d5</title>
<ellipse fill="none" stroke="none" cx="321.39" cy="-76" rx="0.36" ry="0.72"/>
<text text-anchor="middle" x="321.39" y="-70.95" font-family="Times New Roman,serif" font-size="14.00">d5</text>
</g>
<!-- d4&#45;&gt;d5 -->
<g id="edge25" class="edge">
<title>d4&#45;&gt;d5</title>
<path fill="none" stroke="black" d="M325.35,-111.88C324.94,-108.22 321.82,-80.52 321.43,-77.07"/>
</g>
<!-- a6 -->
<g id="node21" class="node">
<title>a6</title>
<ellipse fill="none" stroke="none" cx="1.39" cy="-150" rx="0.36" ry="0.72"/>
<text text-anchor="middle" x="1.39" y="-144.95" font-family="Times New Roman,serif" font-size="14.00">a6</text>
</g>
<!-- a5&#45;&gt;a6 -->
<g id="edge10" class="edge">
<title>a5&#45;&gt;a6</title>
<path fill="none" stroke="black" d="M21.17,-186.87C19.11,-183.1 3.53,-154.63 1.59,-151.08"/>
</g>
<!-- b5&#45;&gt;c3 -->
<g id="edge28" class="edge">
<title>b5&#45;&gt;c3</title>
<path fill="none" stroke="black" d="M113.71,-187.18C120.08,-185.1 218.92,-152.83 225.09,-150.82"/>
</g>
<!-- b6 -->
<g id="node22" class="node">
<title>b6</title>
<ellipse fill="none" stroke="none" cx="113.39" cy="-38" rx="0.36" ry="0.72"/>
<text text-anchor="middle" x="113.39" y="-32.95" font-family="Times New Roman,serif" font-size="14.00">b6</text>
</g>
<!-- b5&#45;&gt;b6 -->
<g id="edge16" class="edge">
<title>b5&#45;&gt;b6</title>
<path fill="none" stroke="black" d="M113.39,-186.85C113.39,-178.41 113.39,-47.31 113.39,-39.12"/>
</g>
<!-- c6 -->
<g id="node23" class="node">
<title>c6</title>
<ellipse fill="none" stroke="none" cx="225.39" cy="-38" rx="0.36" ry="0.72"/>
<text text-anchor="middle" x="225.39" y="-32.95" font-family="Times New Roman,serif" font-size="14.00">c6</text>
</g>
<!-- c5&#45;&gt;c6 -->
<g id="edge20" class="edge">
<title>c5&#45;&gt;c6</title>
<path fill="none" stroke="black" d="M225.39,-74.87C225.39,-71.1 225.39,-42.63 225.39,-39.08"/>
</g>
<!-- d6 -->
<g id="node24" class="node">
<title>d6</title>
<ellipse fill="none" stroke="none" cx="317.39" cy="-38" rx="0.36" ry="0.72"/>
<text text-anchor="middle" x="317.39" y="-32.95" font-family="Times New Roman,serif" font-size="14.00">d6</text>
</g>
<!-- d5&#45;&gt;d6 -->
<g id="edge26" class="edge">
<title>d5&#45;&gt;d6</title>
<path fill="none" stroke="black" d="M321.35,-74.87C320.94,-71.1 317.82,-42.63 317.43,-39.08"/>
</g>
<!-- a7 -->
<g id="node25" class="node">
<title>a7</title>
<ellipse fill="none" stroke="none" cx="1.39" cy="-113" rx="0.36" ry="0.72"/>
<text text-anchor="middle" x="1.39" y="-107.95" font-family="Times New Roman,serif" font-size="14.00">a7</text>
</g>
<!-- a6&#45;&gt;a7 -->
<g id="edge11" class="edge">
<title>a6&#45;&gt;a7</title>
<path fill="none" stroke="black" d="M1.39,-148.88C1.39,-145.22 1.39,-117.52 1.39,-114.07"/>
</g>
<!-- b6&#45;&gt;end -->
<g id="edge4" class="edge">
<title>b6&#45;&gt;end</title>
<path fill="none" stroke="black" d="M113.71,-37.18C119.98,-35.19 215.76,-4.78 224.72,-1.93"/>
</g>
<!-- c6&#45;&gt;end -->
<g id="edge5" class="edge">
<title>c6&#45;&gt;end</title>
<path fill="none" stroke="black" d="M225.39,-36.88C225.39,-33.22 225.39,-5.52 225.39,-2.07"/>
</g>
<!-- d6&#45;&gt;end -->
<g id="edge6" class="edge">
<title>d6&#45;&gt;end</title>
<path fill="none" stroke="black" d="M317.13,-37.18C311.99,-35.19 233.31,-4.78 225.94,-1.93"/>
</g>
<!-- a8 -->
<g id="node26" class="node">
<title>a8</title>
<ellipse fill="none" stroke="none" cx="1.39" cy="-76" rx="0.36" ry="0.72"/>
<text text-anchor="middle" x="1.39" y="-70.95" font-family="Times New Roman,serif" font-size="14.00">a8</text>
</g>
<!-- a7&#45;&gt;a8 -->
<g id="edge12" class="edge">
<title>a7&#45;&gt;a8</title>
<path fill="none" stroke="black" d="M1.39,-111.88C1.39,-108.22 1.39,-80.52 1.39,-77.07"/>
</g>
<!-- a8&#45;&gt;b6 -->
<g id="edge29" class="edge">
<title>a8&#45;&gt;b6</title>
<path fill="none" stroke="black" d="M1.71,-75.18C8.08,-73.1 106.92,-40.83 113.09,-38.82"/>
</g>
</g>
</svg>
