<?xml version="1.0" encoding="UTF-8" standalone="no"?>
<!DOCTYPE svg PUBLIC "-//W3C//DTD SVG 1.1//EN"
 "http://www.w3.org/Graphics/SVG/1.1/DTD/svg11.dtd">
<!-- Generated by graphviz version 12.2.0 (20241103.1931)
 -->
<!-- Title: G Pages: 1 -->
<svg width="448pt" height="448pt"
 viewBox="0.00 0.00 447.84 447.84" xmlns="http://www.w3.org/2000/svg" xmlns:xlink="http://www.w3.org/1999/xlink">
<g id="graph0" class="graph" transform="scale(1 1) rotate(0) translate(36 411.84)">
<title>G</title>
<polygon fill="white" stroke="none" points="-36,36 -36,-411.84 411.84,-411.84 411.84,36 -36,36"/>
<!-- start -->
<g id="node1" class="node">
<title>start</title>
<polygon fill="none" stroke="none" points="218.15,-375.72 217.43,-375.72 217.43,-374.28 218.15,-374.28 218.15,-375.72"/>
<text text-anchor="middle" x="217.79" y="-369.95" font-family="Times New Roman,serif" font-size="14.00">start</text>
</g>
<!-- C0 -->
<g id="node3" class="node">
<title>C0</title>
<ellipse fill="none" stroke="none" cx="139.79" cy="-338" rx="0.36" ry="0.72"/>
<text text-anchor="middle" x="139.79" y="-332.95" font-family="Times New Roman,serif" font-size="14.00">C0</text>
</g>
<!-- start&#45;&gt;C0 -->
<g id="edge20" class="edge">
<title>start&#45;&gt;C0</title>
<path fill="none" stroke="black" d="M217.29,-374.05C210.96,-371.17 146.29,-341.68 140.24,-338.93"/>
</g>
<!-- A0 -->
<g id="node9" class="node">
<title>A0</title>
<ellipse fill="none" stroke="none" cx="198.79" cy="-338" rx="0.36" ry="0.72"/>
<text text-anchor="middle" x="198.79" y="-332.95" font-family="Times New Roman,serif" font-size="14.00">A0</text>
</g>
<!-- start&#45;&gt;A0 -->
<g id="edge10" class="edge">
<title>start&#45;&gt;A0</title>
<path fill="none" stroke="black" d="M217.57,-373.88C215.62,-370.22 200.82,-342.52 198.98,-339.07"/>
</g>
<!-- B0 -->
<g id="node12" class="node">
<title>B0</title>
<ellipse fill="none" stroke="none" cx="246.79" cy="-338" rx="0.36" ry="0.72"/>
<text text-anchor="middle" x="246.79" y="-332.95" font-family="Times New Roman,serif" font-size="14.00">B0</text>
</g>
<!-- start&#45;&gt;B0 -->
<g id="edge17" class="edge">
<title>start&#45;&gt;B0</title>
<path fill="none" stroke="black" d="M218.11,-373.88C221.1,-370.22 243.69,-342.52 246.5,-339.07"/>
</g>
<!-- G0 -->
<g id="node23" class="node">
<title>G0</title>
<ellipse fill="none" stroke="none" cx="301.79" cy="-338" rx="0.36" ry="0.72"/>
<text text-anchor="middle" x="301.79" y="-332.95" font-family="Times New Roman,serif" font-size="14.00">G0</text>
</g>
<!-- start&#45;&gt;G0 -->
<g id="edge4" class="edge">
<title>start&#45;&gt;G0</title>
<path fill="none" stroke="black" d="M218.32,-374.05C225.14,-371.17 294.79,-341.68 301.3,-338.93"/>
</g>
<!-- end -->
<g id="node2" class="node">
<title>end</title>
<polygon fill="none" stroke="none" points="152.15,-1.72 151.43,-1.72 151.43,-0.28 152.15,-0.28 152.15,-1.72"/>
<text text-anchor="middle" x="151.79" y="4.05" font-family="Times New Roman,serif" font-size="14.00">end</text>
</g>
<!-- C1 -->
<g id="node4" class="node">
<title>C1</title>
<ellipse fill="none" stroke="none" cx="59.79" cy="-300" rx="0.36" ry="0.72"/>
<text text-anchor="middle" x="59.79" y="-294.95" font-family="Times New Roman,serif" font-size="14.00">C1</text>
</g>
<!-- C0&#45;&gt;C1 -->
<g id="edge21" class="edge">
<title>C0&#45;&gt;C1</title>
<path fill="none" stroke="black" d="M139.28,-337.05C132.78,-334.08 66.46,-303.77 60.25,-300.93"/>
</g>
<!-- C2 -->
<g id="node5" class="node">
<title>C2</title>
<ellipse fill="none" stroke="none" cx="0.79" cy="-225" rx="0.36" ry="0.72"/>
<text text-anchor="middle" x="0.79" y="-219.95" font-family="Times New Roman,serif" font-size="14.00">C2</text>
</g>
<!-- C1&#45;&gt;C2 -->
<g id="edge22" class="edge">
<title>C1&#45;&gt;C2</title>
<path fill="none" stroke="black" d="M59.62,-299.07C56.27,-294.89 4.2,-229.97 0.95,-225.92"/>
</g>
<!-- C3 -->
<g id="node6" class="node">
<title>C3</title>
<ellipse fill="none" stroke="none" cx="53.79" cy="-113" rx="0.36" ry="0.72"/>
<text text-anchor="middle" x="53.79" y="-107.95" font-family="Times New Roman,serif" font-size="14.00">C3</text>
</g>
<!-- C2&#45;&gt;C3 -->
<g id="edge23" class="edge">
<title>C2&#45;&gt;C3</title>
<path fill="none" stroke="black" d="M0.94,-223.96C3.95,-217.68 50.72,-120.11 53.64,-114.02"/>
</g>
<!-- I4 -->
<g id="node7" class="node">
<title>I4</title>
<ellipse fill="none" stroke="none" cx="53.79" cy="-76" rx="0.36" ry="0.72"/>
<text text-anchor="middle" x="53.79" y="-70.95" font-family="Times New Roman,serif" font-size="14.00">I4</text>
</g>
<!-- C3&#45;&gt;I4 -->
<g id="edge24" class="edge">
<title>C3&#45;&gt;I4</title>
<path fill="none" stroke="black" d="M53.79,-111.88C53.79,-108.22 53.79,-80.52 53.79,-77.07"/>
</g>
<!-- I5 -->
<g id="node8" class="node">
<title>I5</title>
<ellipse fill="none" stroke="none" cx="53.79" cy="-38" rx="0.36" ry="0.72"/>
<text text-anchor="middle" x="53.79" y="-32.95" font-family="Times New Roman,serif" font-size="14.00">I5</text>
</g>
<!-- I4&#45;&gt;I5 -->
<g id="edge34" class="edge">
<title>I4&#45;&gt;I5</title>
<path fill="none" stroke="black" d="M53.79,-74.87C53.79,-71.1 53.79,-42.63 53.79,-39.08"/>
</g>
<!-- I5&#45;&gt;end -->
<g id="edge35" class="edge">
<title>I5&#45;&gt;end</title>
<path fill="none" stroke="black" d="M54.07,-37.18C59.55,-35.19 143.35,-4.78 151.2,-1.93"/>
</g>
<!-- A1 -->
<g id="node10" class="node">
<title>A1</title>
<ellipse fill="none" stroke="none" cx="158.79" cy="-300" rx="0.36" ry="0.72"/>
<text text-anchor="middle" x="158.79" y="-294.95" font-family="Times New Roman,serif" font-size="14.00">A1</text>
</g>
<!-- A0&#45;&gt;A1 -->
<g id="edge11" class="edge">
<title>A0&#45;&gt;A1</title>
<path fill="none" stroke="black" d="M198.67,-337.18C196.4,-335.1 161.1,-302.83 158.9,-300.82"/>
</g>
<!-- D1 -->
<g id="node15" class="node">
<title>D1</title>
<ellipse fill="none" stroke="none" cx="198.79" cy="-300" rx="0.36" ry="0.72"/>
<text text-anchor="middle" x="198.79" y="-294.95" font-family="Times New Roman,serif" font-size="14.00">D1</text>
</g>
<!-- A0&#45;&gt;D1 -->
<g id="edge12" class="edge">
<title>A0&#45;&gt;D1</title>
<path fill="none" stroke="black" d="M198.79,-336.87C198.79,-333.1 198.79,-304.63 198.79,-301.08"/>
</g>
<!-- A2 -->
<g id="node11" class="node">
<title>A2</title>
<ellipse fill="none" stroke="none" cx="92.79" cy="-150" rx="0.36" ry="0.72"/>
<text text-anchor="middle" x="92.79" y="-144.95" font-family="Times New Roman,serif" font-size="14.00">A2</text>
</g>
<!-- A1&#45;&gt;A2 -->
<g id="edge13" class="edge">
<title>A1&#45;&gt;A2</title>
<path fill="none" stroke="black" d="M158.6,-298.85C154.85,-290.41 96.6,-159.31 92.97,-151.12"/>
</g>
<!-- B1 -->
<g id="node13" class="node">
<title>B1</title>
<ellipse fill="none" stroke="none" cx="257.79" cy="-263" rx="0.36" ry="0.72"/>
<text text-anchor="middle" x="257.79" y="-257.95" font-family="Times New Roman,serif" font-size="14.00">B1</text>
</g>
<!-- A1&#45;&gt;B1 -->
<g id="edge14" class="edge">
<title>A1&#45;&gt;B1</title>
<path fill="none" stroke="black" d="M159.07,-299.18C164.7,-297.16 252.07,-265.78 257.52,-263.82"/>
</g>
<!-- A2&#45;&gt;end -->
<g id="edge15" class="edge">
<title>A2&#45;&gt;end</title>
<path fill="none" stroke="black" d="M92.96,-148.86C96.31,-140.47 148.38,-10.25 151.63,-2.12"/>
</g>
<!-- A2&#45;&gt;C3 -->
<g id="edge16" class="edge">
<title>A2&#45;&gt;C3</title>
<path fill="none" stroke="black" d="M92.68,-149.18C90.46,-147.16 56.04,-115.78 53.89,-113.82"/>
</g>
<!-- B0&#45;&gt;B1 -->
<g id="edge18" class="edge">
<title>B0&#45;&gt;B1</title>
<path fill="none" stroke="black" d="M246.86,-336.81C247.75,-330.84 256.87,-269.85 257.72,-264.15"/>
</g>
<!-- E2 -->
<g id="node14" class="node">
<title>E2</title>
<ellipse fill="none" stroke="none" cx="257.79" cy="-225" rx="0.36" ry="0.72"/>
<text text-anchor="middle" x="257.79" y="-219.95" font-family="Times New Roman,serif" font-size="14.00">E2</text>
</g>
<!-- B1&#45;&gt;E2 -->
<g id="edge19" class="edge">
<title>B1&#45;&gt;E2</title>
<path fill="none" stroke="black" d="M257.79,-261.87C257.79,-258.1 257.79,-229.63 257.79,-226.08"/>
</g>
<!-- D2 -->
<g id="node16" class="node">
<title>D2</title>
<ellipse fill="none" stroke="none" cx="267.79" cy="-188" rx="0.36" ry="0.72"/>
<text text-anchor="middle" x="267.79" y="-182.95" font-family="Times New Roman,serif" font-size="14.00">D2</text>
</g>
<!-- E2&#45;&gt;D2 -->
<g id="edge27" class="edge">
<title>E2&#45;&gt;D2</title>
<path fill="none" stroke="black" d="M257.9,-223.88C258.93,-220.22 266.72,-192.52 267.69,-189.07"/>
</g>
<!-- D1&#45;&gt;D2 -->
<g id="edge25" class="edge">
<title>D1&#45;&gt;D2</title>
<path fill="none" stroke="black" d="M199.35,-299.2C204.93,-298.38 250.04,-290.96 266.79,-263.72 283.7,-236.21 268.78,-191.61 267.83,-188.85"/>
</g>
<!-- F2 -->
<g id="node20" class="node">
<title>F2</title>
<ellipse fill="none" stroke="none" cx="198.79" cy="-263" rx="0.36" ry="0.72"/>
<text text-anchor="middle" x="198.79" y="-257.95" font-family="Times New Roman,serif" font-size="14.00">F2</text>
</g>
<!-- D1&#45;&gt;F2 -->
<g id="edge26" class="edge">
<title>D1&#45;&gt;F2</title>
<path fill="none" stroke="black" d="M198.79,-298.88C198.79,-295.22 198.79,-267.52 198.79,-264.07"/>
</g>
<!-- D3 -->
<g id="node17" class="node">
<title>D3</title>
<ellipse fill="none" stroke="none" cx="271.79" cy="-150" rx="0.36" ry="0.72"/>
<text text-anchor="middle" x="271.79" y="-144.95" font-family="Times New Roman,serif" font-size="14.00">D3</text>
</g>
<!-- D2&#45;&gt;D3 -->
<g id="edge28" class="edge">
<title>D2&#45;&gt;D3</title>
<path fill="none" stroke="black" d="M267.83,-186.87C268.24,-183.1 271.36,-154.63 271.75,-151.08"/>
</g>
<!-- F3 -->
<g id="node21" class="node">
<title>F3</title>
<ellipse fill="none" stroke="none" cx="198.79" cy="-150" rx="0.36" ry="0.72"/>
<text text-anchor="middle" x="198.79" y="-144.95" font-family="Times New Roman,serif" font-size="14.00">F3</text>
</g>
<!-- D2&#45;&gt;F3 -->
<g id="edge29" class="edge">
<title>D2&#45;&gt;F3</title>
<path fill="none" stroke="black" d="M267.35,-187.05C261.75,-184.08 204.54,-153.77 199.19,-150.93"/>
</g>
<!-- D3&#45;&gt;end -->
<g id="edge30" class="edge">
<title>D3&#45;&gt;end</title>
<path fill="none" stroke="black" d="M271.5,-148.86C267.56,-143.28 224.73,-82.69 185.79,-37.28 172.89,-22.24 155.44,-5.25 152.29,-2.2"/>
</g>
<!-- H4 -->
<g id="node18" class="node">
<title>H4</title>
<ellipse fill="none" stroke="none" cx="139.79" cy="-188" rx="0.36" ry="0.72"/>
<text text-anchor="middle" x="139.79" y="-182.95" font-family="Times New Roman,serif" font-size="14.00">H4</text>
</g>
<!-- H4&#45;&gt;A2 -->
<g id="edge3" class="edge">
<title>H4&#45;&gt;A2</title>
<path fill="none" stroke="black" d="M139.65,-187.18C136.98,-185.1 95.5,-152.83 92.91,-150.82"/>
</g>
<!-- H3 -->
<g id="node19" class="node">
<title>H3</title>
<ellipse fill="none" stroke="none" cx="139.79" cy="-225" rx="0.36" ry="0.72"/>
<text text-anchor="middle" x="139.79" y="-219.95" font-family="Times New Roman,serif" font-size="14.00">H3</text>
</g>
<!-- H3&#45;&gt;H4 -->
<g id="edge2" class="edge">
<title>H3&#45;&gt;H4</title>
<path fill="none" stroke="black" d="M139.79,-223.88C139.79,-220.22 139.79,-192.52 139.79,-189.07"/>
</g>
<!-- F2&#45;&gt;H3 -->
<g id="edge1" class="edge">
<title>F2&#45;&gt;H3</title>
<path fill="none" stroke="black" d="M198.62,-262.18C195.27,-260.1 143.2,-227.83 139.95,-225.82"/>
</g>
<!-- F2&#45;&gt;F3 -->
<g id="edge31" class="edge">
<title>F2&#45;&gt;F3</title>
<path fill="none" stroke="black" d="M198.79,-261.96C198.79,-255.62 198.79,-157.17 198.79,-151.02"/>
</g>
<!-- F4 -->
<g id="node22" class="node">
<title>F4</title>
<ellipse fill="none" stroke="none" cx="191.79" cy="-76" rx="0.36" ry="0.72"/>
<text text-anchor="middle" x="191.79" y="-70.95" font-family="Times New Roman,serif" font-size="14.00">F4</text>
</g>
<!-- F3&#45;&gt;F4 -->
<g id="edge32" class="edge">
<title>F3&#45;&gt;F4</title>
<path fill="none" stroke="black" d="M198.74,-148.82C198.17,-142.93 192.37,-82.77 191.83,-77.14"/>
</g>
<!-- F4&#45;&gt;end -->
<g id="edge33" class="edge">
<title>F4&#45;&gt;end</title>
<path fill="none" stroke="black" d="M191.67,-75.07C189.44,-70.96 155.23,-8.05 152.03,-2.16"/>
</g>
<!-- G1 -->
<g id="node24" class="node">
<title>G1</title>
<ellipse fill="none" stroke="none" cx="345.79" cy="-300" rx="0.36" ry="0.72"/>
<text text-anchor="middle" x="345.79" y="-294.95" font-family="Times New Roman,serif" font-size="14.00">G1</text>
</g>
<!-- G0&#45;&gt;G1 -->
<g id="edge5" class="edge">
<title>G0&#45;&gt;G1</title>
<path fill="none" stroke="black" d="M301.91,-337.18C304.41,-335.1 343.24,-302.83 345.67,-300.82"/>
</g>
<!-- G2 -->
<g id="node25" class="node">
<title>G2</title>
<ellipse fill="none" stroke="none" cx="374.79" cy="-263" rx="0.36" ry="0.72"/>
<text text-anchor="middle" x="374.79" y="-257.95" font-family="Times New Roman,serif" font-size="14.00">G2</text>
</g>
<!-- G1&#45;&gt;G2 -->
<g id="edge6" class="edge">
<title>G1&#45;&gt;G2</title>
<path fill="none" stroke="black" d="M346.11,-298.88C349.1,-295.22 371.69,-267.52 374.5,-264.07"/>
</g>
<!-- G3 -->
<g id="node26" class="node">
<title>G3</title>
<ellipse fill="none" stroke="none" cx="374.79" cy="-225" rx="0.36" ry="0.72"/>
<text text-anchor="middle" x="374.79" y="-219.95" font-family="Times New Roman,serif" font-size="14.00">G3</text>
</g>
<!-- G2&#45;&gt;G3 -->
<g id="edge7" class="edge">
<title>G2&#45;&gt;G3</title>
<path fill="none" stroke="black" d="M374.79,-261.87C374.79,-258.1 374.79,-229.63 374.79,-226.08"/>
</g>
<!-- G4 -->
<g id="node27" class="node">
<title>G4</title>
<ellipse fill="none" stroke="none" cx="341.79" cy="-188" rx="0.36" ry="0.72"/>
<text text-anchor="middle" x="341.79" y="-182.95" font-family="Times New Roman,serif" font-size="14.00">G4</text>
</g>
<!-- G3&#45;&gt;G4 -->
<g id="edge8" class="edge">
<title>G3&#45;&gt;G4</title>
<path fill="none" stroke="black" d="M374.69,-224.18C372.88,-222.22 345.55,-192.77 342.14,-189.1"/>
</g>
<!-- G4&#45;&gt;D3 -->
<g id="edge9" class="edge">
<title>G4&#45;&gt;D3</title>
<path fill="none" stroke="black" d="M341.34,-187.05C335.66,-184.08 277.62,-153.77 272.19,-150.93"/>
</g>
</g>
</svg>
