<?xml version="1.0" encoding="UTF-8" standalone="no"?>
<!DOCTYPE svg PUBLIC "-//W3C//DTD SVG 1.1//EN"
 "http://www.w3.org/Graphics/SVG/1.1/DTD/svg11.dtd">
<!-- Generated by graphviz version 12.2.0 (20241103.1931)
 -->
<!-- Title: G Pages: 1 -->
<svg width="373pt" height="373pt"
 viewBox="0.00 0.00 372.96 372.96" xmlns="http://www.w3.org/2000/svg" xmlns:xlink="http://www.w3.org/1999/xlink">
<g id="graph0" class="graph" transform="scale(1 1) rotate(0) translate(36 336.96)">
<title>G</title>
<polygon fill="white" stroke="none" points="-36,36 -36,-336.96 336.96,-336.96 336.96,36 -36,36"/>
<!-- start -->
<g id="node1" class="node">
<title>start</title>
<polygon fill="none" stroke="none" points="207.78,-300.72 207.06,-300.72 207.06,-299.28 207.78,-299.28 207.78,-300.72"/>
<text text-anchor="middle" x="207.42" y="-295.8" font-family="Times,serif" font-size="14.00">start</text>
</g>
<!-- C0 -->
<g id="node3" class="node">
<title>C0</title>
<ellipse fill="none" stroke="none" cx="96.42" cy="-263" rx="0.36" ry="0.72"/>
<text text-anchor="middle" x="96.42" y="-258.8" font-family="Times,serif" font-size="14.00">C0</text>
</g>
<!-- start&#45;&gt;C0 -->
<g id="edge20" class="edge">
<title>start&#45;&gt;C0</title>
<path fill="none" stroke="black" d="M206.71,-299.05C197.56,-296.12 102.64,-265.71 96.71,-263.81"/>
</g>
<!-- A0 -->
<g id="node9" class="node">
<title>A0</title>
<ellipse fill="none" stroke="none" cx="189.42" cy="-263" rx="0.36" ry="0.72"/>
<text text-anchor="middle" x="189.42" y="-258.8" font-family="Times,serif" font-size="14.00">A0</text>
</g>
<!-- start&#45;&gt;A0 -->
<g id="edge10" class="edge">
<title>start&#45;&gt;A0</title>
<path fill="none" stroke="black" d="M207.22,-298.88C205.37,-295.22 191.35,-267.52 189.6,-264.07"/>
</g>
<!-- B0 -->
<g id="node12" class="node">
<title>B0</title>
<ellipse fill="none" stroke="none" cx="234.42" cy="-263" rx="0.36" ry="0.72"/>
<text text-anchor="middle" x="234.42" y="-258.8" font-family="Times,serif" font-size="14.00">B0</text>
</g>
<!-- start&#45;&gt;B0 -->
<g id="edge17" class="edge">
<title>start&#45;&gt;B0</title>
<path fill="none" stroke="black" d="M207.73,-298.88C210.51,-295.22 231.54,-267.52 234.16,-264.07"/>
</g>
<!-- G0 -->
<g id="node23" class="node">
<title>G0</title>
<ellipse fill="none" stroke="none" cx="286.42" cy="-263" rx="0.36" ry="0.72"/>
<text text-anchor="middle" x="286.42" y="-258.8" font-family="Times,serif" font-size="14.00">G0</text>
</g>
<!-- start&#45;&gt;G0 -->
<g id="edge4" class="edge">
<title>start&#45;&gt;G0</title>
<path fill="none" stroke="black" d="M207.93,-299.05C214.34,-296.17 279.84,-266.68 285.96,-263.93"/>
</g>
<!-- end -->
<g id="node2" class="node">
<title>end</title>
<polygon fill="none" stroke="none" points="88.78,-1.72 88.06,-1.72 88.06,-0.28 88.78,-0.28 88.78,-1.72"/>
<text text-anchor="middle" x="88.42" y="3.2" font-family="Times,serif" font-size="14.00">end</text>
</g>
<!-- C1 -->
<g id="node4" class="node">
<title>C1</title>
<ellipse fill="none" stroke="none" cx="10.42" cy="-225" rx="0.36" ry="0.72"/>
<text text-anchor="middle" x="10.42" y="-220.8" font-family="Times,serif" font-size="14.00">C1</text>
</g>
<!-- C0&#45;&gt;C1 -->
<g id="edge21" class="edge">
<title>C0&#45;&gt;C1</title>
<path fill="none" stroke="black" d="M96.18,-262.18C91.37,-260.13 17.82,-228.87 10.94,-225.94"/>
</g>
<!-- C2 -->
<g id="node5" class="node">
<title>C2</title>
<ellipse fill="none" stroke="none" cx="0.42" cy="-188" rx="0.36" ry="0.72"/>
<text text-anchor="middle" x="0.42" y="-183.8" font-family="Times,serif" font-size="14.00">C2</text>
</g>
<!-- C1&#45;&gt;C2 -->
<g id="edge22" class="edge">
<title>C1&#45;&gt;C2</title>
<path fill="none" stroke="black" d="M10.31,-223.88C9.28,-220.22 1.49,-192.52 0.52,-189.07"/>
</g>
<!-- C3 -->
<g id="node6" class="node">
<title>C3</title>
<ellipse fill="none" stroke="none" cx="0.42" cy="-113" rx="0.36" ry="0.72"/>
<text text-anchor="middle" x="0.42" y="-108.8" font-family="Times,serif" font-size="14.00">C3</text>
</g>
<!-- C2&#45;&gt;C3 -->
<g id="edge23" class="edge">
<title>C2&#45;&gt;C3</title>
<path fill="none" stroke="black" d="M0.42,-186.81C0.42,-180.84 0.42,-119.85 0.42,-114.15"/>
</g>
<!-- I4 -->
<g id="node7" class="node">
<title>I4</title>
<ellipse fill="none" stroke="none" cx="0.42" cy="-76" rx="0.36" ry="0.72"/>
<text text-anchor="middle" x="0.42" y="-71.8" font-family="Times,serif" font-size="14.00">I4</text>
</g>
<!-- C3&#45;&gt;I4 -->
<g id="edge24" class="edge">
<title>C3&#45;&gt;I4</title>
<path fill="none" stroke="black" d="M0.42,-111.88C0.42,-108.22 0.42,-80.52 0.42,-77.07"/>
</g>
<!-- I5 -->
<g id="node8" class="node">
<title>I5</title>
<ellipse fill="none" stroke="none" cx="0.42" cy="-38" rx="0.36" ry="0.72"/>
<text text-anchor="middle" x="0.42" y="-33.8" font-family="Times,serif" font-size="14.00">I5</text>
</g>
<!-- I4&#45;&gt;I5 -->
<g id="edge34" class="edge">
<title>I4&#45;&gt;I5</title>
<path fill="none" stroke="black" d="M0.42,-74.87C0.42,-71.1 0.42,-42.63 0.42,-39.08"/>
</g>
<!-- I5&#45;&gt;end -->
<g id="edge35" class="edge">
<title>I5&#45;&gt;end</title>
<path fill="none" stroke="black" d="M0.68,-37.18C5.59,-35.19 80.85,-4.78 87.89,-1.93"/>
</g>
<!-- A1 -->
<g id="node10" class="node">
<title>A1</title>
<ellipse fill="none" stroke="none" cx="189.42" cy="-225" rx="0.36" ry="0.72"/>
<text text-anchor="middle" x="189.42" y="-220.8" font-family="Times,serif" font-size="14.00">A1</text>
</g>
<!-- A0&#45;&gt;A1 -->
<g id="edge11" class="edge">
<title>A0&#45;&gt;A1</title>
<path fill="none" stroke="black" d="M189.42,-261.87C189.42,-258.1 189.42,-229.63 189.42,-226.08"/>
</g>
<!-- D1 -->
<g id="node15" class="node">
<title>D1</title>
<ellipse fill="none" stroke="none" cx="151.42" cy="-225" rx="0.36" ry="0.72"/>
<text text-anchor="middle" x="151.42" y="-220.8" font-family="Times,serif" font-size="14.00">D1</text>
</g>
<!-- A0&#45;&gt;D1 -->
<g id="edge12" class="edge">
<title>A0&#45;&gt;D1</title>
<path fill="none" stroke="black" d="M189.31,-262.18C187.15,-260.1 153.62,-227.83 151.53,-225.82"/>
</g>
<!-- A2 -->
<g id="node11" class="node">
<title>A2</title>
<ellipse fill="none" stroke="none" cx="56.42" cy="-150" rx="0.36" ry="0.72"/>
<text text-anchor="middle" x="56.42" y="-145.8" font-family="Times,serif" font-size="14.00">A2</text>
</g>
<!-- A1&#45;&gt;A2 -->
<g id="edge13" class="edge">
<title>A1&#45;&gt;A2</title>
<path fill="none" stroke="black" d="M189.04,-224.07C181.48,-219.89 64.11,-154.97 56.78,-150.92"/>
</g>
<!-- B1 -->
<g id="node13" class="node">
<title>B1</title>
<ellipse fill="none" stroke="none" cx="262.42" cy="-188" rx="0.36" ry="0.72"/>
<text text-anchor="middle" x="262.42" y="-183.8" font-family="Times,serif" font-size="14.00">B1</text>
</g>
<!-- A1&#45;&gt;B1 -->
<g id="edge14" class="edge">
<title>A1&#45;&gt;B1</title>
<path fill="none" stroke="black" d="M189.89,-224.05C195.81,-221.17 256.34,-191.68 262,-188.93"/>
</g>
<!-- A2&#45;&gt;end -->
<g id="edge15" class="edge">
<title>A2&#45;&gt;end</title>
<path fill="none" stroke="black" d="M56.51,-148.86C58.33,-140.47 86.57,-10.25 88.34,-2.12"/>
</g>
<!-- A2&#45;&gt;C3 -->
<g id="edge16" class="edge">
<title>A2&#45;&gt;C3</title>
<path fill="none" stroke="black" d="M56.26,-149.18C53.08,-147.16 3.66,-115.78 0.57,-113.82"/>
</g>
<!-- B0&#45;&gt;B1 -->
<g id="edge18" class="edge">
<title>B0&#45;&gt;B1</title>
<path fill="none" stroke="black" d="M234.6,-261.81C236.87,-255.84 260.09,-194.85 262.26,-189.15"/>
</g>
<!-- E2 -->
<g id="node14" class="node">
<title>E2</title>
<ellipse fill="none" stroke="none" cx="262.42" cy="-150" rx="0.36" ry="0.72"/>
<text text-anchor="middle" x="262.42" y="-145.8" font-family="Times,serif" font-size="14.00">E2</text>
</g>
<!-- B1&#45;&gt;E2 -->
<g id="edge19" class="edge">
<title>B1&#45;&gt;E2</title>
<path fill="none" stroke="black" d="M262.42,-186.87C262.42,-183.1 262.42,-154.63 262.42,-151.08"/>
</g>
<!-- D2 -->
<g id="node16" class="node">
<title>D2</title>
<ellipse fill="none" stroke="none" cx="207.42" cy="-113" rx="0.36" ry="0.72"/>
<text text-anchor="middle" x="207.42" y="-108.8" font-family="Times,serif" font-size="14.00">D2</text>
</g>
<!-- E2&#45;&gt;D2 -->
<g id="edge27" class="edge">
<title>E2&#45;&gt;D2</title>
<path fill="none" stroke="black" d="M262.27,-149.18C259.14,-147.16 210.6,-115.78 207.57,-113.82"/>
</g>
<!-- D1&#45;&gt;D2 -->
<g id="edge25" class="edge">
<title>D1&#45;&gt;D2</title>
<path fill="none" stroke="black" d="M151.58,-223.96C154.77,-217.68 204.19,-120.11 207.27,-114.02"/>
</g>
<!-- F2 -->
<g id="node20" class="node">
<title>F2</title>
<ellipse fill="none" stroke="none" cx="76.42" cy="-188" rx="0.36" ry="0.72"/>
<text text-anchor="middle" x="76.42" y="-183.8" font-family="Times,serif" font-size="14.00">F2</text>
</g>
<!-- D1&#45;&gt;F2 -->
<g id="edge26" class="edge">
<title>D1&#45;&gt;F2</title>
<path fill="none" stroke="black" d="M150.94,-224.05C144.86,-221.17 82.67,-191.68 76.86,-188.93"/>
</g>
<!-- D3 -->
<g id="node17" class="node">
<title>D3</title>
<ellipse fill="none" stroke="none" cx="207.42" cy="-76" rx="0.36" ry="0.72"/>
<text text-anchor="middle" x="207.42" y="-71.8" font-family="Times,serif" font-size="14.00">D3</text>
</g>
<!-- D2&#45;&gt;D3 -->
<g id="edge28" class="edge">
<title>D2&#45;&gt;D3</title>
<path fill="none" stroke="black" d="M207.42,-111.88C207.42,-108.22 207.42,-80.52 207.42,-77.07"/>
</g>
<!-- F3 -->
<g id="node21" class="node">
<title>F3</title>
<ellipse fill="none" stroke="none" cx="131.42" cy="-76" rx="0.36" ry="0.72"/>
<text text-anchor="middle" x="131.42" y="-71.8" font-family="Times,serif" font-size="14.00">F3</text>
</g>
<!-- D2&#45;&gt;F3 -->
<g id="edge29" class="edge">
<title>D2&#45;&gt;F3</title>
<path fill="none" stroke="black" d="M206.94,-112.05C200.77,-109.17 137.76,-79.68 131.86,-76.93"/>
</g>
<!-- D3&#45;&gt;end -->
<g id="edge30" class="edge">
<title>D3&#45;&gt;end</title>
<path fill="none" stroke="black" d="M207.08,-75.07C200.43,-70.96 98.66,-8.05 89.14,-2.16"/>
</g>
<!-- H4 -->
<g id="node18" class="node">
<title>H4</title>
<ellipse fill="none" stroke="none" cx="38.42" cy="-188" rx="0.36" ry="0.72"/>
<text text-anchor="middle" x="38.42" y="-183.8" font-family="Times,serif" font-size="14.00">H4</text>
</g>
<!-- H4&#45;&gt;A2 -->
<g id="edge3" class="edge">
<title>H4&#45;&gt;A2</title>
<path fill="none" stroke="black" d="M38.62,-186.87C40.48,-183.1 54.5,-154.63 56.24,-151.08"/>
</g>
<!-- H3 -->
<g id="node19" class="node">
<title>H3</title>
<ellipse fill="none" stroke="none" cx="66.42" cy="-225" rx="0.36" ry="0.72"/>
<text text-anchor="middle" x="66.42" y="-220.8" font-family="Times,serif" font-size="14.00">H3</text>
</g>
<!-- H3&#45;&gt;H4 -->
<g id="edge2" class="edge">
<title>H3&#45;&gt;H4</title>
<path fill="none" stroke="black" d="M66.11,-223.88C63.22,-220.22 41.41,-192.52 38.7,-189.07"/>
</g>
<!-- H3&#45;&gt;F2 -->
<g id="edge1" class="edge">
<title>H3&#45;&gt;F2</title>
<path fill="none" stroke="black" d="M66.54,-223.88C67.57,-220.22 75.35,-192.52 76.32,-189.07"/>
</g>
<!-- F2&#45;&gt;F3 -->
<g id="edge31" class="edge">
<title>F2&#45;&gt;F3</title>
<path fill="none" stroke="black" d="M76.58,-186.96C79.71,-180.68 128.24,-83.11 131.27,-77.02"/>
</g>
<!-- F4 -->
<g id="node22" class="node">
<title>F4</title>
<ellipse fill="none" stroke="none" cx="121.42" cy="-38" rx="0.36" ry="0.72"/>
<text text-anchor="middle" x="121.42" y="-33.8" font-family="Times,serif" font-size="14.00">F4</text>
</g>
<!-- F3&#45;&gt;F4 -->
<g id="edge32" class="edge">
<title>F3&#45;&gt;F4</title>
<path fill="none" stroke="black" d="M131.31,-74.87C130.28,-71.1 122.49,-42.63 121.52,-39.08"/>
</g>
<!-- F4&#45;&gt;end -->
<g id="edge33" class="edge">
<title>F4&#45;&gt;end</title>
<path fill="none" stroke="black" d="M121.33,-37.18C119.51,-35.22 92.18,-5.77 88.77,-2.1"/>
</g>
<!-- G1 -->
<g id="node24" class="node">
<title>G1</title>
<ellipse fill="none" stroke="none" cx="300.42" cy="-225" rx="0.36" ry="0.72"/>
<text text-anchor="middle" x="300.42" y="-220.8" font-family="Times,serif" font-size="14.00">G1</text>
</g>
<!-- G0&#45;&gt;G1 -->
<g id="edge5" class="edge">
<title>G0&#45;&gt;G1</title>
<path fill="none" stroke="black" d="M286.58,-261.87C288.02,-258.1 298.93,-229.63 300.28,-226.08"/>
</g>
<!-- G2 -->
<g id="node25" class="node">
<title>G2</title>
<ellipse fill="none" stroke="none" cx="300.42" cy="-188" rx="0.36" ry="0.72"/>
<text text-anchor="middle" x="300.42" y="-183.8" font-family="Times,serif" font-size="14.00">G2</text>
</g>
<!-- G1&#45;&gt;G2 -->
<g id="edge6" class="edge">
<title>G1&#45;&gt;G2</title>
<path fill="none" stroke="black" d="M300.42,-223.88C300.42,-220.22 300.42,-192.52 300.42,-189.07"/>
</g>
<!-- G3 -->
<g id="node26" class="node">
<title>G3</title>
<ellipse fill="none" stroke="none" cx="300.42" cy="-150" rx="0.36" ry="0.72"/>
<text text-anchor="middle" x="300.42" y="-145.8" font-family="Times,serif" font-size="14.00">G3</text>
</g>
<!-- G2&#45;&gt;G3 -->
<g id="edge7" class="edge">
<title>G2&#45;&gt;G3</title>
<path fill="none" stroke="black" d="M300.42,-186.87C300.42,-183.1 300.42,-154.63 300.42,-151.08"/>
</g>
<!-- G4 -->
<g id="node27" class="node">
<title>G4</title>
<ellipse fill="none" stroke="none" cx="272.42" cy="-113" rx="0.36" ry="0.72"/>
<text text-anchor="middle" x="272.42" y="-108.8" font-family="Times,serif" font-size="14.00">G4</text>
</g>
<!-- G3&#45;&gt;G4 -->
<g id="edge8" class="edge">
<title>G3&#45;&gt;G4</title>
<path fill="none" stroke="black" d="M300.11,-148.88C297.22,-145.22 275.41,-117.52 272.7,-114.07"/>
</g>
<!-- G4&#45;&gt;D3 -->
<g id="edge9" class="edge">
<title>G4&#45;&gt;D3</title>
<path fill="none" stroke="black" d="M272.01,-112.05C266.64,-109.12 211.06,-78.71 207.59,-76.81"/>
</g>
</g>
</svg>
