<?xml version="1.0" encoding="UTF-8" standalone="no"?>
<!DOCTYPE svg PUBLIC "-//W3C//DTD SVG 1.1//EN"
 "http://www.w3.org/Graphics/SVG/1.1/DTD/svg11.dtd">
<!-- Generated by graphviz version 12.2.0 (20241103.1931)
 -->
<!-- Title: G Pages: 1 -->
<svg width="460pt" height="410pt"
 viewBox="0.00 0.00 460.00 410.40" xmlns="http://www.w3.org/2000/svg" xmlns:xlink="http://www.w3.org/1999/xlink">
<g id="graph0" class="graph" transform="scale(1 1) rotate(0) translate(36 374.4)">
<title>G</title>
<polygon fill="white" stroke="none" points="-36,36 -36,-374.4 424,-374.4 424,36 -36,36"/>
<!-- start -->
<g id="node1" class="node">
<title>start</title>
<polygon fill="none" stroke="none" points="194.36,-338.72 193.64,-338.72 193.64,-337.28 194.36,-337.28 194.36,-338.72"/>
<text text-anchor="middle" x="194" y="-333.8" font-family="Times,serif" font-size="14.00">start</text>
</g>
<!-- a0 -->
<g id="node3" class="node">
<title>a0</title>
<ellipse fill="none" stroke="none" cx="26" cy="-300" rx="0.36" ry="0.72"/>
<text text-anchor="middle" x="26" y="-295.8" font-family="Times,serif" font-size="14.00">a0</text>
</g>
<!-- start&#45;&gt;a0 -->
<g id="edge1" class="edge">
<title>start&#45;&gt;a0</title>
<path fill="none" stroke="black" d="M193.25,-337.12C181.51,-334.56 35.56,-302.8 26.45,-300.82"/>
</g>
<!-- b0 -->
<g id="node4" class="node">
<title>b0</title>
<ellipse fill="none" stroke="none" cx="97" cy="-263" rx="0.36" ry="0.72"/>
<text text-anchor="middle" x="97" y="-258.8" font-family="Times,serif" font-size="14.00">b0</text>
</g>
<!-- start&#45;&gt;b0 -->
<g id="edge2" class="edge">
<title>start&#45;&gt;b0</title>
<path fill="none" stroke="black" d="M193.38,-336.81C185.38,-330.74 102.43,-267.84 97.25,-263.91"/>
</g>
<!-- c0 -->
<g id="node5" class="node">
<title>c0</title>
<ellipse fill="none" stroke="none" cx="194" cy="-225" rx="0.36" ry="0.72"/>
<text text-anchor="middle" x="194" y="-220.8" font-family="Times,serif" font-size="14.00">c0</text>
</g>
<!-- start&#45;&gt;c0 -->
<g id="edge3" class="edge">
<title>start&#45;&gt;c0</title>
<path fill="none" stroke="black" d="M194,-336.96C194,-330.62 194,-232.17 194,-226.02"/>
</g>
<!-- d0 -->
<g id="node6" class="node">
<title>d0</title>
<ellipse fill="none" stroke="none" cx="291" cy="-188" rx="0.36" ry="0.72"/>
<text text-anchor="middle" x="291" y="-183.8" font-family="Times,serif" font-size="14.00">d0</text>
</g>
<!-- start&#45;&gt;d0 -->
<g id="edge4" class="edge">
<title>start&#45;&gt;d0</title>
<path fill="none" stroke="black" d="M194.28,-336.85C199.79,-328.41 285.39,-197.31 290.74,-189.12"/>
</g>
<!-- e0 -->
<g id="node7" class="node">
<title>e0</title>
<ellipse fill="none" stroke="none" cx="339" cy="-150" rx="0.36" ry="0.72"/>
<text text-anchor="middle" x="339" y="-145.8" font-family="Times,serif" font-size="14.00">e0</text>
</g>
<!-- start&#45;&gt;e0 -->
<g id="edge5" class="edge">
<title>start&#45;&gt;e0</title>
<path fill="none" stroke="black" d="M194.56,-337.2C205.94,-335.55 388,-308.39 388,-263.72 388,-263.72 388,-263.72 388,-224.28 388,-186.22 342.01,-152.87 339.14,-150.82"/>
</g>
<!-- end -->
<g id="node2" class="node">
<title>end</title>
<polygon fill="none" stroke="none" points="194.36,-1.72 193.64,-1.72 193.64,-0.28 194.36,-0.28 194.36,-1.72"/>
<text text-anchor="middle" x="194" y="3.2" font-family="Times,serif" font-size="14.00">end</text>
</g>
<!-- a0&#45;&gt;b0 -->
<g id="edge11" class="edge">
<title>a0&#45;&gt;b0</title>
<path fill="none" stroke="black" d="M26.45,-299.05C32.22,-296.17 91.08,-266.68 96.59,-263.93"/>
</g>
<!-- a1 -->
<g id="node8" class="node">
<title>a1</title>
<ellipse fill="none" stroke="none" cx="49" cy="-263" rx="0.36" ry="0.72"/>
<text text-anchor="middle" x="49" y="-258.8" font-family="Times,serif" font-size="14.00">a1</text>
</g>
<!-- a0&#45;&gt;a1 -->
<g id="edge27" class="edge">
<title>a0&#45;&gt;a1</title>
<path fill="none" stroke="black" d="M26.26,-298.88C28.63,-295.22 46.54,-267.52 48.77,-264.07"/>
</g>
<!-- b0&#45;&gt;c0 -->
<g id="edge12" class="edge">
<title>b0&#45;&gt;c0</title>
<path fill="none" stroke="black" d="M97.28,-262.18C102.79,-260.1 188.39,-227.83 193.74,-225.82"/>
</g>
<!-- b1 -->
<g id="node9" class="node">
<title>b1</title>
<ellipse fill="none" stroke="none" cx="97" cy="-225" rx="0.36" ry="0.72"/>
<text text-anchor="middle" x="97" y="-220.8" font-family="Times,serif" font-size="14.00">b1</text>
</g>
<!-- b0&#45;&gt;b1 -->
<g id="edge30" class="edge">
<title>b0&#45;&gt;b1</title>
<path fill="none" stroke="black" d="M97,-261.87C97,-258.1 97,-229.63 97,-226.08"/>
</g>
<!-- c0&#45;&gt;d0 -->
<g id="edge13" class="edge">
<title>c0&#45;&gt;d0</title>
<path fill="none" stroke="black" d="M194.28,-224.18C199.79,-222.16 285.39,-190.78 290.74,-188.82"/>
</g>
<!-- c1 -->
<g id="node10" class="node">
<title>c1</title>
<ellipse fill="none" stroke="none" cx="194" cy="-188" rx="0.36" ry="0.72"/>
<text text-anchor="middle" x="194" y="-183.8" font-family="Times,serif" font-size="14.00">c1</text>
</g>
<!-- c0&#45;&gt;c1 -->
<g id="edge33" class="edge">
<title>c0&#45;&gt;c1</title>
<path fill="none" stroke="black" d="M194,-223.88C194,-220.22 194,-192.52 194,-189.07"/>
</g>
<!-- d0&#45;&gt;e0 -->
<g id="edge14" class="edge">
<title>d0&#45;&gt;e0</title>
<path fill="none" stroke="black" d="M291.14,-187.18C293.87,-185.1 336.23,-152.83 338.87,-150.82"/>
</g>
<!-- d1 -->
<g id="node11" class="node">
<title>d1</title>
<ellipse fill="none" stroke="none" cx="291" cy="-150" rx="0.36" ry="0.72"/>
<text text-anchor="middle" x="291" y="-145.8" font-family="Times,serif" font-size="14.00">d1</text>
</g>
<!-- d0&#45;&gt;d1 -->
<g id="edge36" class="edge">
<title>d0&#45;&gt;d1</title>
<path fill="none" stroke="black" d="M291,-186.87C291,-183.1 291,-154.63 291,-151.08"/>
</g>
<!-- e1 -->
<g id="node12" class="node">
<title>e1</title>
<ellipse fill="none" stroke="none" cx="339" cy="-113" rx="0.36" ry="0.72"/>
<text text-anchor="middle" x="339" y="-108.8" font-family="Times,serif" font-size="14.00">e1</text>
</g>
<!-- e0&#45;&gt;e1 -->
<g id="edge39" class="edge">
<title>e0&#45;&gt;e1</title>
<path fill="none" stroke="black" d="M339,-148.88C339,-145.22 339,-117.52 339,-114.07"/>
</g>
<!-- a1&#45;&gt;b1 -->
<g id="edge15" class="edge">
<title>a1&#45;&gt;b1</title>
<path fill="none" stroke="black" d="M49.14,-262.18C51.87,-260.1 94.23,-227.83 96.87,-225.82"/>
</g>
<!-- a2 -->
<g id="node13" class="node">
<title>a2</title>
<ellipse fill="none" stroke="none" cx="49" cy="-225" rx="0.36" ry="0.72"/>
<text text-anchor="middle" x="49" y="-220.8" font-family="Times,serif" font-size="14.00">a2</text>
</g>
<!-- a1&#45;&gt;a2 -->
<g id="edge28" class="edge">
<title>a1&#45;&gt;a2</title>
<path fill="none" stroke="black" d="M49,-261.87C49,-258.1 49,-229.63 49,-226.08"/>
</g>
<!-- b1&#45;&gt;c1 -->
<g id="edge16" class="edge">
<title>b1&#45;&gt;c1</title>
<path fill="none" stroke="black" d="M97.28,-224.18C102.79,-222.16 188.39,-190.78 193.74,-188.82"/>
</g>
<!-- b2 -->
<g id="node14" class="node">
<title>b2</title>
<ellipse fill="none" stroke="none" cx="97" cy="-188" rx="0.36" ry="0.72"/>
<text text-anchor="middle" x="97" y="-183.8" font-family="Times,serif" font-size="14.00">b2</text>
</g>
<!-- b1&#45;&gt;b2 -->
<g id="edge31" class="edge">
<title>b1&#45;&gt;b2</title>
<path fill="none" stroke="black" d="M97,-223.88C97,-220.22 97,-192.52 97,-189.07"/>
</g>
<!-- c1&#45;&gt;d1 -->
<g id="edge17" class="edge">
<title>c1&#45;&gt;d1</title>
<path fill="none" stroke="black" d="M194.28,-187.18C199.79,-185.1 285.39,-152.83 290.74,-150.82"/>
</g>
<!-- c2 -->
<g id="node15" class="node">
<title>c2</title>
<ellipse fill="none" stroke="none" cx="194" cy="-150" rx="0.36" ry="0.72"/>
<text text-anchor="middle" x="194" y="-145.8" font-family="Times,serif" font-size="14.00">c2</text>
</g>
<!-- c1&#45;&gt;c2 -->
<g id="edge34" class="edge">
<title>c1&#45;&gt;c2</title>
<path fill="none" stroke="black" d="M194,-186.87C194,-183.1 194,-154.63 194,-151.08"/>
</g>
<!-- d1&#45;&gt;e1 -->
<g id="edge18" class="edge">
<title>d1&#45;&gt;e1</title>
<path fill="none" stroke="black" d="M291.14,-149.18C293.87,-147.16 336.23,-115.78 338.87,-113.82"/>
</g>
<!-- d2 -->
<g id="node16" class="node">
<title>d2</title>
<ellipse fill="none" stroke="none" cx="291" cy="-113" rx="0.36" ry="0.72"/>
<text text-anchor="middle" x="291" y="-108.8" font-family="Times,serif" font-size="14.00">d2</text>
</g>
<!-- d1&#45;&gt;d2 -->
<g id="edge37" class="edge">
<title>d1&#45;&gt;d2</title>
<path fill="none" stroke="black" d="M291,-148.88C291,-145.22 291,-117.52 291,-114.07"/>
</g>
<!-- e2 -->
<g id="node17" class="node">
<title>e2</title>
<ellipse fill="none" stroke="none" cx="339" cy="-76" rx="0.36" ry="0.72"/>
<text text-anchor="middle" x="339" y="-71.8" font-family="Times,serif" font-size="14.00">e2</text>
</g>
<!-- e1&#45;&gt;e2 -->
<g id="edge40" class="edge">
<title>e1&#45;&gt;e2</title>
<path fill="none" stroke="black" d="M339,-111.88C339,-108.22 339,-80.52 339,-77.07"/>
</g>
<!-- a2&#45;&gt;b2 -->
<g id="edge19" class="edge">
<title>a2&#45;&gt;b2</title>
<path fill="none" stroke="black" d="M49.14,-224.18C51.87,-222.16 94.23,-190.78 96.87,-188.82"/>
</g>
<!-- a3 -->
<g id="node18" class="node">
<title>a3</title>
<ellipse fill="none" stroke="none" cx="49" cy="-188" rx="0.36" ry="0.72"/>
<text text-anchor="middle" x="49" y="-183.8" font-family="Times,serif" font-size="14.00">a3</text>
</g>
<!-- a2&#45;&gt;a3 -->
<g id="edge29" class="edge">
<title>a2&#45;&gt;a3</title>
<path fill="none" stroke="black" d="M49,-223.88C49,-220.22 49,-192.52 49,-189.07"/>
</g>
<!-- b2&#45;&gt;c2 -->
<g id="edge20" class="edge">
<title>b2&#45;&gt;c2</title>
<path fill="none" stroke="black" d="M97.28,-187.18C102.79,-185.1 188.39,-152.83 193.74,-150.82"/>
</g>
<!-- b3 -->
<g id="node19" class="node">
<title>b3</title>
<ellipse fill="none" stroke="none" cx="97" cy="-150" rx="0.36" ry="0.72"/>
<text text-anchor="middle" x="97" y="-145.8" font-family="Times,serif" font-size="14.00">b3</text>
</g>
<!-- b2&#45;&gt;b3 -->
<g id="edge32" class="edge">
<title>b2&#45;&gt;b3</title>
<path fill="none" stroke="black" d="M97,-186.87C97,-183.1 97,-154.63 97,-151.08"/>
</g>
<!-- c2&#45;&gt;d2 -->
<g id="edge21" class="edge">
<title>c2&#45;&gt;d2</title>
<path fill="none" stroke="black" d="M194.28,-149.18C199.79,-147.16 285.39,-115.78 290.74,-113.82"/>
</g>
<!-- c3 -->
<g id="node20" class="node">
<title>c3</title>
<ellipse fill="none" stroke="none" cx="194" cy="-113" rx="0.36" ry="0.72"/>
<text text-anchor="middle" x="194" y="-108.8" font-family="Times,serif" font-size="14.00">c3</text>
</g>
<!-- c2&#45;&gt;c3 -->
<g id="edge35" class="edge">
<title>c2&#45;&gt;c3</title>
<path fill="none" stroke="black" d="M194,-148.88C194,-145.22 194,-117.52 194,-114.07"/>
</g>
<!-- d2&#45;&gt;e2 -->
<g id="edge22" class="edge">
<title>d2&#45;&gt;e2</title>
<path fill="none" stroke="black" d="M291.14,-112.18C293.87,-110.16 336.23,-78.78 338.87,-76.82"/>
</g>
<!-- d3 -->
<g id="node21" class="node">
<title>d3</title>
<ellipse fill="none" stroke="none" cx="291" cy="-76" rx="0.36" ry="0.72"/>
<text text-anchor="middle" x="291" y="-71.8" font-family="Times,serif" font-size="14.00">d3</text>
</g>
<!-- d2&#45;&gt;d3 -->
<g id="edge38" class="edge">
<title>d2&#45;&gt;d3</title>
<path fill="none" stroke="black" d="M291,-111.88C291,-108.22 291,-80.52 291,-77.07"/>
</g>
<!-- e3 -->
<g id="node22" class="node">
<title>e3</title>
<ellipse fill="none" stroke="none" cx="362" cy="-38" rx="0.36" ry="0.72"/>
<text text-anchor="middle" x="362" y="-33.8" font-family="Times,serif" font-size="14.00">e3</text>
</g>
<!-- e2&#45;&gt;e3 -->
<g id="edge41" class="edge">
<title>e2&#45;&gt;e3</title>
<path fill="none" stroke="black" d="M339.26,-74.87C341.63,-71.1 359.54,-42.63 361.77,-39.08"/>
</g>
<!-- a3&#45;&gt;end -->
<g id="edge6" class="edge">
<title>a3&#45;&gt;end</title>
<path fill="none" stroke="black" d="M48.86,-187.18C45.99,-185.13 0,-151.78 0,-113.72 0,-113.72 0,-113.72 0,-75.28 0,-30.61 182.06,-3.45 193.44,-1.8"/>
</g>
<!-- a3&#45;&gt;b3 -->
<g id="edge23" class="edge">
<title>a3&#45;&gt;b3</title>
<path fill="none" stroke="black" d="M49.14,-187.18C51.87,-185.1 94.23,-152.83 96.87,-150.82"/>
</g>
<!-- b3&#45;&gt;end -->
<g id="edge7" class="edge">
<title>b3&#45;&gt;end</title>
<path fill="none" stroke="black" d="M97.28,-148.86C102.79,-140.47 188.39,-10.25 193.74,-2.12"/>
</g>
<!-- b3&#45;&gt;c3 -->
<g id="edge24" class="edge">
<title>b3&#45;&gt;c3</title>
<path fill="none" stroke="black" d="M97.28,-149.18C102.79,-147.16 188.39,-115.78 193.74,-113.82"/>
</g>
<!-- c3&#45;&gt;end -->
<g id="edge8" class="edge">
<title>c3&#45;&gt;end</title>
<path fill="none" stroke="black" d="M194,-111.96C194,-105.68 194,-8.11 194,-2.02"/>
</g>
<!-- c3&#45;&gt;d3 -->
<g id="edge25" class="edge">
<title>c3&#45;&gt;d3</title>
<path fill="none" stroke="black" d="M194.28,-112.18C199.79,-110.16 285.39,-78.78 290.74,-76.82"/>
</g>
<!-- d3&#45;&gt;end -->
<g id="edge9" class="edge">
<title>d3&#45;&gt;end</title>
<path fill="none" stroke="black" d="M290.72,-75.07C285.3,-70.96 202.35,-8.05 194.58,-2.16"/>
</g>
<!-- d3&#45;&gt;e3 -->
<g id="edge26" class="edge">
<title>d3&#45;&gt;e3</title>
<path fill="none" stroke="black" d="M291.45,-75.05C297.22,-72.08 356.08,-41.77 361.59,-38.93"/>
</g>
<!-- e3&#45;&gt;end -->
<g id="edge10" class="edge">
<title>e3&#45;&gt;end</title>
<path fill="none" stroke="black" d="M361.52,-37.18C352.05,-35.17 206.09,-4.28 194.7,-1.87"/>
</g>
</g>
</svg>
